<svg id="Layer_1" data-name="Layer 1" xmlns="http://www.w3.org/2000/svg" width="364.93" height="480" viewBox="0 0 364.93 480">
  <defs>
    <style>
      .cls-1 {
        fill: #323232;
      }

      .cls-2 {
        fill: #910f1b;
      }
    </style>
  </defs>
  <title>Team_Logos_Text_Atlanta</title>
  <g>
    <g>
      <path class="cls-1" d="M159.88,384.31c0,.31.19.47.58.47v.48h-4.08v-.48a.52.52,0,0,0,.34-.12.44.44,0,0,0,.14-.35V373.77h-4.37a.87.87,0,0,0-.46.13.53.53,0,0,0-.23.5h-.47v-3.71h.47a.55.55,0,0,0,.23.51.87.87,0,0,0,.46.13h11.76a.87.87,0,0,0,.46-.13.55.55,0,0,0,.23-.51h.47v3.71h-.47a.53.53,0,0,0-.23-.5.87.87,0,0,0-.46-.13h-4.37Z" transform="translate(-67.54 -10)"/>
      <path class="cls-1" d="M209.48,385.76c0-.26-.09-.41-.25-.45a3.82,3.82,0,0,0-.65-.05H196v-.48c.53,0,.8-.16.8-.47v-12c0-.31-.27-.47-.8-.47v-.48h4.56v.48c-.5,0-.74.16-.74.47v10.54h8.79a1.11,1.11,0,0,0,.65-.18.62.62,0,0,0,.25-.51H210v3.63Z" transform="translate(-67.54 -10)"/>
      <path class="cls-1" d="M289.4,384.78c.34,0,.51-.16.51-.47v-12c0-.31-.17-.47-.51-.47v-.48h4.53v.48c-.14,0-.21.09-.21.26s.18.39.53.74l7.6,7.89v-8.42c0-.31-.23-.47-.69-.47v-.48h4v.48c-.33,0-.5.16-.5.47v12c0,.31.17.47.5.47v.48h-4.29v-.48c.23,0,.35-.08.35-.24s-.15-.32-.43-.61l-8.08-8.42v8.8c0,.31.21.47.61.47v.48H289.4Z" transform="translate(-67.54 -10)"/>
      <path class="cls-1" d="M344.67,384.31c0,.31.19.47.58.47v.48h-4.08v-.48a.48.48,0,0,0,.33-.12.41.41,0,0,0,.15-.35V373.77h-4.37a.87.87,0,0,0-.46.13.53.53,0,0,0-.23.5h-.47v-3.71h.47a.55.55,0,0,0,.23.51.87.87,0,0,0,.46.13H349a.87.87,0,0,0,.46-.13.55.55,0,0,0,.23-.51h.47v3.71h-.47a.53.53,0,0,0-.23-.5.87.87,0,0,0-.46-.13h-4.37Z" transform="translate(-67.54 -10)"/>
      <path class="cls-1" d="M119.83,385.26H115.7l.19-.48c.33,0,.54-.09.62-.29a2,2,0,0,0,0-.79l-.19-1.88h-6.46l-1.8,2a2.63,2.63,0,0,0-.49.69.17.17,0,0,0,.06.23.43.43,0,0,0,.24.08l-.2.48h-4.66l.2-.48c.23-.09.43-.17.62-.26a1.7,1.7,0,0,0,.53-.43l9.85-10.77c.22-.23.39-.42.51-.56a1.6,1.6,0,0,0,.26-.42q.12-.3,0-.39a1.23,1.23,0,0,0-.31-.14l.19-.48h4.48l-.2.48a2.1,2.1,0,0,0-.46.16.64.64,0,0,0-.33.37,1,1,0,0,0-.06.5c0,.19,0,.41.07.64l1.12,10.3a5.59,5.59,0,0,0,.12.66.46.46,0,0,0,.41.34Zm-3.46-5.4-.51-4.93-4.21,4.93Z" transform="translate(-67.54 -10)"/>
      <path class="cls-1" d="M257.92,384.52a.92.92,0,0,1-.36-.43l-5.51-10.77c-.12-.23-.21-.42-.27-.56a.92.92,0,0,1-.1-.42.38.38,0,0,1,.19-.39,1.66,1.66,0,0,1,.37-.14v-.48h-4.88v.48a2.13,2.13,0,0,1,.37.14.39.39,0,0,1,.18.39,1.06,1.06,0,0,1-.09.42c-.06.14-.16.33-.28.56L242,384.09a.9.9,0,0,1-.35.43c-.15.09-.33.17-.52.26v.48h4.66v-.48a.57.57,0,0,1-.27-.08.25.25,0,0,1-.15-.23,1.64,1.64,0,0,1,.21-.69l1-2H253l1,2a1.64,1.64,0,0,1,.21.69.24.24,0,0,1-.16.23.57.57,0,0,1-.27.08v.48h4.67v-.48A5,5,0,0,1,257.92,384.52Zm-10.35-4.66,2.13-4.72.1-.2.1.2,2.13,4.72Z" transform="translate(-67.54 -10)"/>
      <path class="cls-1" d="M380.06,384.77a.46.46,0,0,0,.4-.35,3,3,0,0,0,.12-.66l1.12-10.3c0-.23.06-.44.07-.63a1.17,1.17,0,0,0,0-.51.69.69,0,0,0-.34-.37,2.51,2.51,0,0,0-.46-.16l-.19-.47h4.47l.2.47a1.87,1.87,0,0,0-.32.15c-.09.06-.1.19,0,.38a1.89,1.89,0,0,0,.27.43c.12.14.28.32.5.55l9.86,10.78a1.47,1.47,0,0,0,.53.42c.18.09.39.18.62.27l.19.48h-4.66l-.19-.48a.46.46,0,0,0,.23-.08q.14-.07.06-.24a2.41,2.41,0,0,0-.49-.69l-1.79-2h-6.46l-.2,1.88a1.82,1.82,0,0,0,.06.8c.07.19.28.29.62.29l.19.48h-4.14Zm8.37-4.93-4.21-4.92-.5,4.92Z" transform="translate(-67.54 -10)"/>
      <g>
        <path class="cls-1" d="M249.8,13.35c-3.46,8.85-10.25,17.12-17,20.15,5,2.2,10.17,9.54,10.17,16.29s-5.11,12.35-11.41,12.35-11.4-5.53-11.4-12.35c-16.18.58-24.41-8.47-24.41-8.47l22.19,36.15c5.75-2.37,17.1-5.07,30.44-5.32h2.91c13.35.25,24.69,2.95,30.44,5.32l22.19-36.15s-8.22,9-24.4,8.47c0,6.82-5.11,12.35-11.41,12.35s-11.41-5.53-11.41-12.35,5.15-14.09,10.18-16.29C260.06,30.47,253.26,22.2,249.8,13.35Z" transform="translate(-67.54 -10)"/>
        <path class="cls-1" d="M196.32,85.26c3.31-1,7.18-2.34,10.73-3.7L200.7,71.29c-6.1,3.5-25.76,7.5-37.92,9.37-15.65,2.42-25-8.44-31.05-30.68-.19,10.29,4.43,34.18,14.9,44.47C163.59,96.1,187.36,87.83,196.32,85.26Z" transform="translate(-67.54 -10)"/>
        <path class="cls-1" d="M211.09,321s-46.13-25.8-54.15-31.3c-7.24-5-7.43-8.57-7.43-13s-1.12-51.58-1.14-66c-3-.38-13.74-3.12-13.74-3.12s0,60.77,0,74.87c0,12.19,10.67,17.14,10.67,17.14s54.68,30.68,84.4,46.87C214.79,332.28,211.09,321,211.09,321Z" transform="translate(-67.54 -10)"/>
        <path class="cls-1" d="M292.56,81.56c3.56,1.36,7.42,2.75,10.74,3.7,9,2.57,32.73,10.84,49.68,9.19,10.48-10.29,15.1-34.18,14.91-44.47-6.08,22.24-15.4,33.1-31.06,30.68-12.16-1.87-31.81-5.87-37.91-9.37Z" transform="translate(-67.54 -10)"/>
        <path class="cls-1" d="M350.11,276.77c0,4.38-.19,8-7.43,13-8,5.5-54.16,31.3-54.16,31.3s-3.7,11.26-18.62,25.48c29.72-16.19,84.4-46.87,84.4-46.87S365,294.68,365,282.49c0-14.1.15-74.88.15-74.88s-10.85,2.75-13.87,3.13C351.23,225.19,350.11,272.43,350.11,276.77Z" transform="translate(-67.54 -10)"/>
      </g>
    </g>
    <g>
      <g>
        <path class="cls-2" d="M340.54,434.25,310,447.57v14.35L321.06,458v17.36H302.87c-5.52,0-4.36-5-4.36-7.44V421.6c0-2.48-1.16-7.44,4.36-7.44h18.72v13.92l19-6.32V410.23c0-6.82,1-10.75-10.8-10.75s-44.62.11-44.62.11c-2.54,0-6.67.62-6.67,4.46v81.38c0,3.85,4.13,4.47,6.67,4.47,0,0,33.23.1,45,.1s10.43-3.93,10.43-10.75Z" transform="translate(-67.54 -10)"/>
        <path class="cls-2" d="M218,462.4l0-3.77-20.48,7.15v9.58H181.74v-18.7l17.58-6.32V432.49L181.74,439V414.25h15v12.5L218,419.83s0-13.44,0-13.51c-.15-4.42-1.47-6.9-10.8-6.9H150.32c5.35,0,9.64,7.06,9.64,10h0l.06,75.85c0,3.84,4.13,4.46,6.66,4.46l41,.1c8.27,0,10-2,10.3-5.59C218.14,482.8,218,462.4,218,462.4Z" transform="translate(-67.54 -10)"/>
        <path class="cls-2" d="M422.23,478.94h0V409.44h0c0-3,4.22-10,9.49-10H394.1c5.27,0,9.48,7.06,9.48,10h0v42.27l-25.66-52v-.26H349.88c5.23,0,9.42,7,9.48,9.95V479c0,3.21-4.57,10.76-10.23,10.76h39.06c-5.69,0-10.24-7.62-10.24-10.81h0V440.6l23.9,49.16h30.61C426.78,489.75,422.23,482.13,422.23,478.94Z" transform="translate(-67.54 -10)"/>
        <path class="cls-2" d="M260.2,478.94h0v-69.5h0c0-3,4.31-10,9.69-10H229.72c5.38,0,9.69,7.06,9.69,10h0V479c-.08,3.23-4.69,10.72-10.44,10.72h41.66C264.84,489.75,260.2,482.13,260.2,478.94Z" transform="translate(-67.54 -10)"/>
        <path class="cls-2" d="M141.3,479.38l-.25-.41-.23-.38h0l-12.69-25.92L140.47,448v-.22h0V409.51c0-8.27-6.66-9.92-17.16-9.92l-55.09-.17c5.36,0,9.64,7.06,9.64,10h0v69.62c-.12,3.25-4.69,10.68-10.39,10.68h42.85c-5.78,0-10.4-7.62-10.4-10.81h0V465.07c2.47-.93,5.65-2.17,9.23-3.59l9.5,22h0c.8,1.41,1.48,2.18.4,3.59a12.87,12.87,0,0,1-3.63,2.67h40.49C149.07,489.75,143.52,482.88,141.3,479.38Zm-20.92-47.14a9.5,9.5,0,0,1-5.06,8.53l-15.41,6.5v-32.8h13.3c7.17,0,7.17,4.75,7.17,4.75Z" transform="translate(-67.54 -10)"/>
      </g>
      <g>
        <path class="cls-2" d="M99.71,70.92A63.47,63.47,0,0,1,115.77,39c8.41-9.86,9-17,7.11-20.71s-6.17-6.84-11.36-8.28c6,5.52,5.87,9.63,2.64,14.1C109.06,31.16,86.29,48.49,99.71,70.92Z" transform="translate(-67.54 -10)"/>
        <path class="cls-2" d="M399.82,70.92A63.4,63.4,0,0,0,383.77,39c-8.42-9.86-9-17-7.12-20.71S382.83,11.44,388,10c-5.95,5.52-5.87,9.63-2.64,14.1C390.47,31.16,413.24,48.49,399.82,70.92Z" transform="translate(-67.54 -10)"/>
        <path class="cls-2" d="M322.91,179.21s34.07,18.14,73.15-12.05c-4.06,15.33-26.14,33.47-53.7,33.47-17.69,0-28.53-7.26-41.14-9.47-9.35-1.65-20.46-.95-21.46,7.62-1.45,12.32,13,16.41,25.73,13.67-3.58,6.2-28.88,15.87-39.38,5.13-.12,16,6.33,59.66,43.55,56.91,4.18,6.33,11.22,12.06,17.78,14.08-6.56,4.3-21.47,12.18-21.47,12.18s-35.8-7.88-43.8-51.55c0,38.66,10.74,64.19,18.14,67.89-1.43,5-6.43,11.47-10.86,16.11s-18.88,15.58-19.68,23.15c-.81-7.57-15.38-18.63-19.69-23.15s-9.43-11.09-10.86-16.11c7.4-3.7,18.14-29.23,18.14-67.89-8,43.67-43.79,51.55-43.79,51.55s-14.92-7.88-21.48-12.18c6.56-2,13.6-7.75,17.78-14.08,37.23,2.75,43.67-40.92,43.55-56.91-10.5,10.74-35.8,1.07-39.38-5.13,12.74,2.74,27.18-1.35,25.73-13.67-1-8.57-12.11-9.27-21.46-7.62-12.61,2.21-23.44,9.47-41.14,9.47-27.56,0-49.64-18.14-53.69-33.47,39.07,30.19,73.14,12.05,73.14,12.05S109.11,193,87.88,131c-9.81-28.69,8.83-54.57,3.3-58,7.69.35,7.93,14.52,8.08,23.84a36.42,36.42,0,0,0,11,26.1s-21.89-43.88,12.17-81c0,0-.07,37,14,55.55,32.89,43.35,42.05,21.76,69,45.4,0,0-6.86-7.1-5.89-14.48,5.89,12.89,22.28,16.23,29.75,16.23h4.45c4.17-.32,7-3.13,6.94-11.51a44.85,44.85,0,0,1,1.14-11.59s-2.3,8.32-7.32,10.59c-3.95,1.79-7.7-.33-8.08-3.37,2.85,1.14,7,1.5,9.12-4.18,2.74-7.21,8.56-23,10.84-25.1,1-1.14,2.66.38,2.66.38s-1.33-12.93,8.75-11.41c-2.66,1.71-2.85,5.71-2.85,12.17,1.33-3.61,4.75-5.32,7.22-4.94-3.42,1.71-4.18,8.17-4.18,14.83s-.63,20.74,8.74,31.37a8.84,8.84,0,0,1-6.27-4.56s-.33,7.23,6.8,7.32h2.85c7.48,0,23.86-3.34,29.75-16.23,1,7.38-5.89,14.48-5.89,14.48,27-23.64,36.14-2,69-45.4,14.09-18.57,14-55.55,14-55.55,34.06,37.14,12.17,81,12.17,81a36.42,36.42,0,0,0,11-26.1c.15-9.32.39-23.49,8.08-23.84-5.53,3.39,13.11,29.27,3.3,58C390.42,193,322.91,179.21,322.91,179.21ZM251.77,106.7l-3.23-3.62V112Z" transform="translate(-67.54 -10)"/>
      </g>
    </g>
  </g>
</svg>
