<svg id="Layer_2" data-name="Layer 2" xmlns="http://www.w3.org/2000/svg" width="490" height="351.43" viewBox="0 0 490 351.43">
  <defs>
    <style>
      .cls-1 {
        fill: #f2df00;
      }

      .cls-2 {
        fill: #fff;
      }
    </style>
  </defs>
  <title>Team_Logos_Text_Boston</title>
  <g>
    <g>
      <g>
        <path class="cls-1" d="M163.61,347.18a4.35,4.35,0,0,0,1-3v-4.63c0-3.51-1.78-5.3-5.3-5.3H140.62l2.3,5.19h0V361.2H159.6c3.51,0,5.22-1.73,5.22-5.3V350A3.6,3.6,0,0,0,163.61,347.18Zm-15.21-7.69h9.77c.87,0,1,0,1,1.12v3.79a1.53,1.53,0,0,1-.06.5,1.6,1.6,0,0,1-.78.11H148.4Zm0,16.52v-6.19h9.92a2.25,2.25,0,0,1,.93.11,1.4,1.4,0,0,1,.08.66v4.34a2.13,2.13,0,0,1-.13,1s-.15.13-1,.13Z" transform="translate(-5 -99.3)"/>
        <path class="cls-1" d="M200.11,334.29H188.18c-3.51,0-5.15,1.72-5.15,5.41v16.09c0,2.32.53,5.41,5.15,5.41h11.93c3.51,0,5.15-1.72,5.15-5.41V339.7C205.26,336,203.63,334.29,200.11,334.29Zm-.34,6.35V355.1c0,.75,0,.91-1.12.91h-9.27c-.84,0-.87,0-.87-.91V340.61c0-1.12.06-1.12.87-1.12h9.27c1,0,1.12.07,1.12,1.16Z" transform="translate(-5 -99.3)"/>
        <path class="cls-1" d="M241.33,345.16h-11.4a1.73,1.73,0,0,1-.05-.53v-4.31a2.46,2.46,0,0,1,.08-.77,1.23,1.23,0,0,1,.5-.06H245.6V334.3h-16c-3.56,0-5.22,1.72-5.22,5.41v5.73c0,2.88,1.68,4.6,4.49,4.6h10.87a2.76,2.76,0,0,1,.52,0h0a1.45,1.45,0,0,1,.06.5v4.56a2.12,2.12,0,0,1-.09.78,1.43,1.43,0,0,1-.67.09H224.39v5.19h16.24c3.56,0,5.23-1.72,5.23-5.41v-6C245.86,346.89,244.16,345.16,241.33,345.16Z" transform="translate(-5 -99.3)"/>
        <polygon class="cls-1" points="258.37 234.99 258.37 240.19 265.23 240.19 265.23 261.89 270.72 261.89 270.72 240.19 277.61 240.19 277.61 234.99 258.37 234.99"/>
        <path class="cls-1" d="M316.47,334.29H304.54c-3.51,0-5.15,1.72-5.15,5.41v16.09c0,2.32.53,5.41,5.15,5.41h11.93c4.62,0,5.15-3.09,5.15-5.41V339.7C321.62,336,320,334.29,316.47,334.29Zm-1.47,5.2c1,0,1.12.08,1.12,1.16V355.1c0,.75,0,.91-1.12.91h-9.27c-.84,0-.87,0-.87-.91V340.61c0-1.12.07-1.12.87-1.12Z" transform="translate(-5 -99.3)"/>
        <polygon class="cls-1" points="352.57 234.99 352.57 251.68 339.55 234.99 334.7 234.99 334.7 261.89 339.96 261.89 339.96 244.17 354.06 261.89 357.88 261.89 357.88 234.99 352.57 234.99"/>
      </g>
      <g>
        <path class="cls-2" d="M463.84,401.9,475,420v8.74l-3.78,3.76-21.63.07h0l-4-4V387.9l4-4.14h32.25L493,365.67H439.46l-13.85,14.54v59.34l10.73,11.12h48L495,439.58V401.9Z" transform="translate(-5 -99.3)"/>
        <polygon class="cls-2" points="56.41 266.37 56.41 329.1 56.44 333.26 31.41 333.26 26.91 328.35 26.91 266.37 0 266.37 6.95 277.62 6.95 340.25 17.7 351.38 65.63 351.38 76.37 340.25 76.37 280.92 62.54 266.37 56.41 266.37"/>
        <polygon class="cls-2" points="224.18 277.59 231.84 285.76 231.84 351.38 249.06 351.4 249.06 277.59 224.18 277.59"/>
        <polygon class="cls-2" points="316.8 277.59 324.46 285.76 324.46 351.38 341.68 351.4 341.68 277.59 316.8 277.59"/>
        <path class="cls-2" d="M224.18,413V385.7l-8.24-8.77H154l12.37,13.21v27.55l-8.77,3.3,8.77,11.61v18.13H183.7V430.92l-3.31-.78,3.31-1.3h0l14.66-5.75,14.74,27.54h19.63L213.5,417.15Zm-15.76-10.5-21.78,8-2.92-2.61v-13h0L180,392.75h24.86l3.55,3.19Z" transform="translate(-5 -99.3)"/>
        <polygon class="cls-2" points="273.9 293.08 273.89 293.08 270.18 290.94 274.97 290.94 274.97 290.94 305.61 290.86 313.05 277.59 264.76 277.59 257.67 283.07 257.67 309.59 300.33 322.25 300.35 333.1 298.37 335.52 262.2 335.57 253.14 351.4 308.03 351.34 316.01 343.06 316.01 310.88 273.93 298.4 273.9 293.08"/>
        <polygon class="cls-2" points="411.91 342.57 411.91 277.59 394.69 277.59 394.69 316.79 368.27 277.59 346.33 277.7 351.69 285.66 351.69 351.38 368.95 351.38 368.95 311.22 396.01 351.38 420.15 351.38 411.91 342.57"/>
        <path class="cls-2" d="M146.6,376.87H85.06l12.37,13.2v27.58L86.5,422l10.94,10.61v9.33l-8.21,8.77h25V430.92l-3.29-.78,9.32-3.65,33.34-13.15v-29Zm-7.44,25.56-22,8-2.84-2.61v-13l-3.52-2h3.52l21.42-.09,3.46,3.19Z" transform="translate(-5 -99.3)"/>
      </g>
    </g>
    <path class="cls-2" d="M300.8,99.3l9.85,8.2V249.73L256,284.1l-57.75-33.88V125.82l-5.89-4.27h70.75l5.59,5v16.3l-27.44,15.86v-24H215.13v106.6L256,265.54,295,241V173.56L283.27,163,295,155.75V115L277.89,99.3H160.65l10.71,8.2V264.41L256,315.56l81.11-51V99.3Zm-31.86,127L256,235.51l-14.66-8V192.22l-4.5-1.06h-.09l26.1-15.77h0l5.87,5.52Z" transform="translate(-5 -99.3)"/>
  </g>
</svg>
