<svg id="Layer_1" data-name="Layer 1" xmlns="http://www.w3.org/2000/svg" width="440.43" height="480" viewBox="0 0 440.43 480">
  <defs>
    <style>
      .cls-1 {
        fill: #161823;
      }

      .cls-2 {
        fill: #fff;
      }

      .cls-3 {
        fill: #b4926a;
      }
    </style>
  </defs>
  <title>Team_Logos_Text_Chengdu</title>
  <g>
    <path class="cls-1" d="M206.49,47.62S208,52.9,208.91,58c-2.67,4.53-6.16,12.76-10.12,21.11-8.36,5.5-12.31,8.36-20,12.32-2,12.54,2,32.34,21.55,41.57-2.2-3.08-2.86-5.71-1.1-7.69S221.45,94,224.09,87.65s3.74-8.36,2-11.22C223,71.49,206.49,47.62,206.49,47.62Z" transform="translate(-29.78 -10)"/>
    <path class="cls-1" d="M293.25,47.62S291.71,52.9,290.83,58C293.5,62.49,297,70.72,301,79.07c8.36,5.5,12.32,8.36,20,12.32,2,12.54-2,32.34-21.55,41.57,2.2-3.08,2.86-5.71,1.1-7.69S278.29,94,275.65,87.65s-3.74-8.36-2-11.22C276.72,71.49,293.25,47.62,293.25,47.62Z" transform="translate(-29.78 -10)"/>
    <polygon class="cls-2" points="186.92 77.68 175.28 74.75 181.36 82.07 186.92 77.68"/>
    <polygon class="cls-2" points="251.71 77.68 263.35 74.75 257.27 82.07 251.71 77.68"/>
    <path class="cls-1" d="M357.18,86.82s27-49.18-3-73.74C341.62,1,314.64,28.51,314.64,28.51Z" transform="translate(-29.78 -10)"/>
    <path class="cls-1" d="M145.58,13.08a36.89,36.89,0,0,0-9.21,11.08l7.91,11.44-11.52-1.92c-5.88,24.48,9.86,53.14,9.86,53.14l42.54-58.31S158.18,1,145.58,13.08Z" transform="translate(-29.78 -10)"/>
    <path class="cls-1" d="M283.5,128.36a225.26,225.26,0,0,0-30.87,6.51V125l4.18-4a33.83,33.83,0,0,1,8.77-1.11c5.61-.08,13-7.16,10.24-17.45-10.66,2.35-26,5.39-26,5.4s-15.3-3-26-5.4c-2.74,10.29,4.62,17.37,10.23,17.45a34,34,0,0,1,8.78,1.11l4.17,4v11.5c-17.07,5.14-32.64,11.66-37.91,17.13-1,1,41.7-13.68,70.45-14,6,3.85,11.6,13,11.6,13A52.88,52.88,0,0,0,283.5,128.36Z" transform="translate(-29.78 -10)"/>
    <path class="cls-2" d="M105.5,364.56c0-4.58,3.61-7.7,9-7.7.52,0,1,0,1.5.07a12.39,12.39,0,0,1,1.4.2c0,1.17-.07,2-.13,4.08H117a1.66,1.66,0,0,0-.83-.94,4.33,4.33,0,0,0-1.81-.31c-2.79,0-5,1.77-5,4.54a4.39,4.39,0,0,0,4.66,4.66,5.46,5.46,0,0,0,2-.32,1.82,1.82,0,0,0,1-.91h.31c0,1.12,0,3,.09,3.93a11.63,11.63,0,0,1-1.44.31,16.53,16.53,0,0,1-2.12.13c-4.81,0-8.4-3-8.4-7.72Z" transform="translate(-29.78 -10)"/>
    <path class="cls-2" d="M164.16,365.52c0,5.45,0,6.17,1,6.24v.33c-.51,0-1.66,0-2.64,0s-2.26,0-2.81,0v-.33c.92-.07.92-.79.92-4.89V366H154.9v.9c0,4.1,0,4.82.92,4.89v.33c-.55,0-1.69,0-2.75,0s-2.18,0-2.66,0v-.33c.91-.07.91-.79.91-6.24v-2.31c0-5.06,0-5.79-.87-5.85V357l2.7,0,2.58,0v.33c-.83.06-.83.79-.83,4.95V363h5.68v-.69c0-4.14,0-4.87-.81-4.93V357l2.68,0,2.48,0v.33c-.77.06-.77.79-.77,5.85Z" transform="translate(-29.78 -10)"/>
    <path class="cls-2" d="M198.46,363.21c0-5.06,0-5.79-.79-5.85V357l4.41,0,4.81,0c0,1,0,2.08-.07,3.79h-.33c-.12-.71-.91-.92-2.22-.92H202V363h1.89c1.35,0,1.71-.06,1.85-.44h.32c0,.67,0,1.25,0,1.81s0,1.25,0,2h-.3c-.14-.4-.52-.52-1.83-.52H202v2.62c0,.42,0,.54.39.61.65,0,1.81,0,2.67,0s1.54-.21,1.68-.8h.32c0,1.83-.07,2.71-.07,3.77-1.45,0-3,0-4.41,0-2.33,0-4.37,0-5,0v-.33c.83-.07.83-.79.83-6.24Z" transform="translate(-29.78 -10)"/>
    <path class="cls-2" d="M253.7,372.26h-.52c-3.05-2.6-5-4.23-6.22-5.39-.87-.77-1.74-1.6-2.87-2.81H244c0,.77,0,1.27,0,1.69,0,5.22,0,5.92.85,6v.35c-.68,0-1.62,0-2.57,0s-1.9,0-2.38,0v-.33c.86-.07.86-.79.86-6.24v-8.59h.54c3,2.64,4.95,4.32,6.22,5.51.95.87,1.74,1.66,2.85,2.85h.06c0-.92,0-1.67,0-2.27,0-4.87,0-5.6-.9-5.66V357l2.56,0,2.37,0v.33c-.79.06-.79.79-.79,5.85Z" transform="translate(-29.78 -10)"/>
    <path class="cls-2" d="M287.36,364.58c0-4.6,3.66-7.74,9.13-7.74.67,0,1.23,0,2,.1a14.26,14.26,0,0,1,1.48.23c-.05,1.17-.09,2-.13,4.08h-.33a1.54,1.54,0,0,0-.94-1,5.35,5.35,0,0,0-2.2-.39c-2.92,0-5,1.81-5,4.55a4.36,4.36,0,0,0,4.37,4.69c.27,0,.58,0,.87-.05,0-.49,0-1.08,0-1.43,0-1.48-.09-2.48-.8-2.58v-.35c.84,0,1.75,0,2.58,0,1,0,1.79,0,2.42,0v.33c-.69.08-.69.71-.69,2.87v1.58c0,.87,0,1.77,0,2.23a13.77,13.77,0,0,1-4.3.56c-4.81,0-8.43-2.89-8.43-7.7Z" transform="translate(-29.78 -10)"/>
    <path class="cls-2" d="M346.38,364.25a7.55,7.55,0,0,1-3.12,6.4,9.75,9.75,0,0,1-5.82,1.48c-1,0-1.83,0-2.6-.06s-1.59,0-2.15,0v-.31c.9-.11.9-.75.9-6.2v-2.31c0-5.06,0-5.64-.86-5.74v-.36c.48,0,1.52-.08,2.36-.1,1,0,1.89-.06,3-.06a10.18,10.18,0,0,1,5.06,1.08,6.85,6.85,0,0,1,3.26,6.2Zm-3.81.16a4,4,0,0,0-4.32-4.37,8.26,8.26,0,0,0-1.08.07v8.46c0,.15,0,.3.18.34a3.72,3.72,0,0,0,.85.08,4.68,4.68,0,0,0,2.73-.85,4.56,4.56,0,0,0,1.64-3.71Z" transform="translate(-29.78 -10)"/>
    <path class="cls-2" d="M380.56,363.09c0-5.07,0-5.8-.8-5.86v-.32l2.63,0,2.66,0v.32c-.83.06-.83.79-.83,5.86V365a4.8,4.8,0,0,0,.58,2.68,2.77,2.77,0,0,0,2.39,1.12,2.71,2.71,0,0,0,2.19-1.08A4.32,4.32,0,0,0,390,365v-1.9c0-5.07,0-5.8-.91-5.86v-.32l2.66,0,2.54,0v.32c-.75.06-.77.79-.77,5.86v1.83c0,2.46-.46,3.77-1.29,4.87a6,6,0,0,1-5,2.43c-2.72,0-4.78-1.1-5.8-3a7.91,7.91,0,0,1-.83-4.22Z" transform="translate(-29.78 -10)"/>
    <path class="cls-1" d="M57.2,384.47A5.77,5.77,0,0,0,55.58,386a9.21,9.21,0,0,0-.93,1.74,4.52,4.52,0,0,0-.47,2v15.66H69.05V389.16a6,6,0,0,0-.58-1.82,11.15,11.15,0,0,0-.93-1.52A4.58,4.58,0,0,0,66,384.47H93.57A5.82,5.82,0,0,0,91.94,386a9.21,9.21,0,0,0-.93,1.74,6.13,6.13,0,0,0-.58,2V466a6.14,6.14,0,0,0,.58,2,10.52,10.52,0,0,0,.93,1.78,4.6,4.6,0,0,0,1.63,1.52H66a4.37,4.37,0,0,0,1.34-1.08,7.71,7.71,0,0,0,.87-1.35c.31-.46.54-46.94.7-47.46H54.41c.16.52.39,47,.7,47.46a10.49,10.49,0,0,0,.81,1.35,3.7,3.7,0,0,0,1.28,1.08H29.78a4.09,4.09,0,0,0,1.45-1.3,11.17,11.17,0,0,0,.88-1.56,7.49,7.49,0,0,0,.69-1.83V389.16a9.58,9.58,0,0,0-.69-1.82c-.24-.47-.53-1-.88-1.52a3.94,3.94,0,0,0-1.45-1.35Z" transform="translate(-29.78 -10)"/>
    <path class="cls-1" d="M122.63,384.47A5.82,5.82,0,0,0,121,386a9.21,9.21,0,0,0-.93,1.74,4.51,4.51,0,0,0-.46,2v65.56h12V389.16a6,6,0,0,0-.58-1.82,11.15,11.15,0,0,0-.93-1.52,4.58,4.58,0,0,0-1.51-1.35h27.53a5.77,5.77,0,0,0-1.62,1.56,9.21,9.21,0,0,0-.93,1.74,5.89,5.89,0,0,0-.58,2V466a5.91,5.91,0,0,0,.58,2,9.21,9.21,0,0,0,.93,1.74,4.85,4.85,0,0,0,1.62,1.48h-13v.08H112.87v-.08H95.21a4.2,4.2,0,0,0,1.45-1.31,13.36,13.36,0,0,0,.87-1.47,8,8,0,0,0,.7-1.83V389.16a10.39,10.39,0,0,0-.7-1.82,15.84,15.84,0,0,0-.87-1.52,4,4,0,0,0-1.45-1.35Z" transform="translate(-29.78 -10)"/>
    <path class="cls-1" d="M194,471.3a4.79,4.79,0,0,0,1.51-1.3,8,8,0,0,0,.93-1.56,5.22,5.22,0,0,0,.58-1.83V438.05l-14.87-22.58V466a4.5,4.5,0,0,0,.46,2,12.21,12.21,0,0,0,.93,1.78,4.6,4.6,0,0,0,1.63,1.52H157.78a4.17,4.17,0,0,0,1.45-1.3,10.16,10.16,0,0,0,.87-1.56,7.52,7.52,0,0,0,.7-1.83V389.16a9.66,9.66,0,0,0-.7-1.82,15.84,15.84,0,0,0-.87-1.52,4,4,0,0,0-1.45-1.35l27.77.09,11.5,17.54V389.16a6,6,0,0,0-.58-1.82,11.15,11.15,0,0,0-.93-1.52,4.58,4.58,0,0,0-1.51-1.35h27.54a5.82,5.82,0,0,0-1.63,1.56,9.21,9.21,0,0,0-.93,1.74,6.13,6.13,0,0,0-.58,2V466a6.14,6.14,0,0,0,.58,2,10.52,10.52,0,0,0,.93,1.78,4.6,4.6,0,0,0,1.63,1.52Z" transform="translate(-29.78 -10)"/>
    <path class="cls-1" d="M278.62,471.3a4.17,4.17,0,0,0,1.45-1.3,10.16,10.16,0,0,0,.87-1.56,8,8,0,0,0,.7-1.83V389.16a10.39,10.39,0,0,0-.7-1.82,15.84,15.84,0,0,0-.87-1.52,4,4,0,0,0-1.45-1.35h57.24v18.32a9.58,9.58,0,0,0-2.09-1.17,14.84,14.84,0,0,0-2.32-.74,13.53,13.53,0,0,0-2.67-.43H303v6.08h21.92a10.18,10.18,0,0,0,2.67-.35,18.75,18.75,0,0,0,2.33-.7,7.14,7.14,0,0,0,2.09-1.21v20.49a6.37,6.37,0,0,0-1.86-1.09c-.7-.26-1.36-.47-2-.65a17,17,0,0,0-2.44-.52H303v32.83h28.7a13.76,13.76,0,0,0,2.68-.44,17.43,17.43,0,0,0,2.32-.69,5.71,5.71,0,0,0,2-1.22V471.3Z" transform="translate(-29.78 -10)"/>
    <path class="cls-1" d="M411.07,471.4V453.16a6.26,6.26,0,0,0,2.22,1.17,22.37,22.37,0,0,0,2.62.67,17.06,17.06,0,0,0,3,.42H441.3v-4.94L428.5,433.4h-.13l-21.59-28.1V389.08a8,8,0,0,0-.79-1.73,18,18,0,0,0-1-1.52,4.27,4.27,0,0,0-1.63-1.34h57.71v18.23a8.94,8.94,0,0,0-2.23-1.13,19.2,19.2,0,0,0-2.62-.71,18.07,18.07,0,0,0-3-.42H430.86v5l12.82,16.82h.13l21.57,28.35v14.75l4.84,6.07Z" transform="translate(-29.78 -10)"/>
    <path class="cls-1" d="M223.33,384.47v18.32a7.1,7.1,0,0,1,2-1.17,16.61,16.61,0,0,1,2.38-.74,13.37,13.37,0,0,1,2.58-.42h0l18.57-.36-9.4,3.68v62.84L249.89,490l11-24V400.45H270a13.53,13.53,0,0,1,2.67.43,15,15,0,0,1,2.33.74,7.39,7.39,0,0,1,2,1.17V384.47Z" transform="translate(-29.78 -10)"/>
    <path class="cls-1" d="M366.69,471.3a5.06,5.06,0,0,1-1.6-1.52,10.33,10.33,0,0,1-1-1.78,5.76,5.76,0,0,1-.62-2V438.74h5.43L378.66,466a5.64,5.64,0,0,1,.12,2,10.21,10.21,0,0,1-.43,1.78,3,3,0,0,1-1.17,1.52h29.24a7.55,7.55,0,0,1-2.1-1.3,13.28,13.28,0,0,1-1.48-1.56,17.35,17.35,0,0,1-1.36-1.83l-12.33-34.9,9.74-31.26V389.59a5.69,5.69,0,0,1,.62-2,10.73,10.73,0,0,1,1-1.65,5,5,0,0,1,1.72-1.48H337.57a4.15,4.15,0,0,1,1.54,1.35,15.27,15.27,0,0,1,.93,1.52,10,10,0,0,1,.74,1.82V471.3ZM366,433.53a13.26,13.26,0,0,1-2.47,3.39V400.45h12.71Z" transform="translate(-29.78 -10)"/>
    <path class="cls-1" d="M167.63,240.45c14.81,9.09,24.85,14.8,30.5,17.91-5.17-8.71-9-17.7-10.82-26.34,45.51,38.22,62.55,42.18,62.55,42.18s17-4,62.54-42.18c-1.81,8.64-5.65,17.63-10.81,26.34,5.65-3.11,15.69-8.82,30.5-17.91,24.58-15.09,57.83-43.35,58.06-65.67-.86-14.95-3.68-33.3-7.18-46-4.76,43.13-39.29,73.14-56.86,81.52,0,0,4.7-11.89,4.86-20.62-48.56,43.84-81.11,49.84-81.11,49.84s-32.56-6-81.12-49.84c.17,8.73,4.87,20.62,4.87,20.62-17.58-8.38-52.1-38.39-56.87-81.52-3.5,12.69-6.31,31-7.17,46C109.79,197.1,143.05,225.36,167.63,240.45Z" transform="translate(-29.78 -10)"/>
    <path class="cls-3" d="M294.72,273.62c-20,22.75-44.86,34.22-44.86,34.22-31.66-16.16-99.51-60.72-114-73.28-14.14-12.28-23.81-27.08-26-40.89-.73-4.64-.79-11.33-.36-18.89.22,22.32,33.48,50.58,58.06,65.67,14.81,9.09,24.85,14.8,30.5,17.91-5.17-8.71-9-17.7-10.82-26.34,45.51,38.22,62.55,42.18,62.55,42.18s17-4,62.54-42.18c-1.81,8.64-5.65,17.63-10.81,26.34,5.65-3.11,15.69-8.82,30.5-17.91,24.58-15.09,57.83-43.35,58.06-65.67.43,7.56.49,14.28-.36,18.89-3.18,17.07-21.14,56.45-83.24,105.89-30.66,24.23-72.37,43.06-76.65,45.18C253.79,325.43,277.59,304.21,294.72,273.62Z" transform="translate(-29.78 -10)"/>
  </g>
</svg>
