<svg id="Layer_3" data-name="Layer 3" xmlns="http://www.w3.org/2000/svg" width="490" height="228.53" viewBox="0 0 490 228.53">
  <defs>
    <style>
      .cls-1 {
        fill: #0072ce;
      }

      .cls-2 {
        fill: #fff;
      }
    </style>
  </defs>
  <title>Team_Logos_Text_Dallas</title>
  <g>
    <path class="cls-1" d="M493.59,283.87c-16.57,29.25-29.17,23.23-32.4,20.45-.53-.46-1-.94-1-.94-4.94-6.13-.53-15.13,4.84-21.36,30.63-35.48,17.25-85.7,17.25-85.7-4.62,25.91-8.64,18.82-8.64,18.82-.62-1.34.6-10,.6-10-11.35,25.7-31.68,33.38-40.27,37.22C405.76,255,408.15,277.5,408.15,277.5c9.32-20.52,30.32-25.64,30.32-25.64-10.55,8-8.68,27.22-9.62,46.44C426.5,346.18,386,364.39,386,364.39,499.31,346.67,493.59,283.87,493.59,283.87Z" transform="translate(-3.63 -135.86)"/>
    <path class="cls-1" d="M429.47,236.69c65-25.1,39.62-100.83,39.62-100.83-7.72,42.56-31.25,54.32-50.16,62.73-78.74,35-43.22,103.53-43.22,103.53C370.71,256.22,425.33,238.29,429.47,236.69Z" transform="translate(-3.63 -135.86)"/>
  </g>
  <g>
    <path class="cls-2" d="M46.36,312.09l43.18,0c1.38-8.11,2.71-15.59,4.09-23.7l-43.18,0Z" transform="translate(-3.63 -135.86)"/>
    <path class="cls-2" d="M357.11,317c-1,5.61-1.88,11.15-2.79,15.51H331.71q8.12-44.9,16.17-91.68l-27.67,0-5.16,4.37C308.77,281.52,302.5,317,296.22,352.5l3.16,3.71,79.44,0,4.45-3.71,7.84-44.53C379.79,311.43,370.08,314,357.11,317Z" transform="translate(-3.63 -135.86)"/>
    <path class="cls-2" d="M291.82,311.94c1.38-8.11,2.71-15.59,4.09-23.7l-42.71,0L249,312Z" transform="translate(-3.63 -135.86)"/>
    <path class="cls-2" d="M243.15,325l9.65-54.79h3.65l48.35,0c1.17-7.48,3-17.61,4.37-25l-2.84-3.67-78,0-3.41,3q-9.55,54-19.07,108l3.14,3.77,76.62,0,4.54-3.54c1.12-6.38,2.24-12.68,3.39-18.91l-51.86,0s0-.07,0-.06v.06h0s0-.11,0-.11l1.24-7.24C243,325.92,243.06,325.47,243.15,325Z" transform="translate(-3.63 -135.86)"/>
    <path class="cls-2" d="M215.23,241.52l-29,0c-.25,1.25-.46,2.55-.67,3.74q-6.24,35.43-12.49,70.83c-.63,3.58-1.52,7.13-4.29,10.26-5.37,6.06-12,7.92-19.5,7.82-12.45-.18-18.33-6.53-16.31-18,4.2-23.89,8.41-48,12.62-71.87a27.66,27.66,0,0,0,.55-3.34L118,241l-5,4.22c-4.14,23.54-8.2,47.17-12.46,70.7-2.88,16,3.05,27.55,16.37,35.12,14.26,8.1,31,8.41,48.71,4.12,17.21-4.18,37-18,40.24-41s8-46.19,12-69.32Z" transform="translate(-3.63 -135.86)"/>
    <path class="cls-2" d="M104.14,241.59l-77.84,0-3.61,3.2Q13.13,298.76,3.63,352.66l3.11,3.73h24l4.73-3.81L50,270.31h3.65l48.78,0c1.19-7.48,3.06-17.73,4.41-25.14Z" transform="translate(-3.63 -135.86)"/>
  </g>
  <g>
    <path class="cls-1" d="M156.59,220.93v-21h4.94v17.54h8.74v3.47Z" transform="translate(-3.63 -135.86)"/>
    <path class="cls-1" d="M208.49,220.9v-21h4.94v17.54h8.74v3.47Z" transform="translate(-3.63 -135.86)"/>
    <polygon class="cls-1" points="267.62 63.85 261.51 63.85 255.05 85.06 260.19 85.06 261.25 80.86 262.18 77.1 262.17 77.09 262.21 76.91 262.21 76.91 262.21 76.91 264.53 67.59 264.6 67.59 266.97 76.94 263.83 76.95 263.08 80.69 267.83 80.69 268.97 85.05 274.11 85.05 267.62 63.85"/>
    <polygon class="cls-1" points="108.91 63.94 102.81 63.95 96.35 85.15 101.49 85.15 102.55 80.95 103.47 77.19 103.47 77.19 103.51 77 103.51 77 103.51 77 105.83 67.69 105.9 67.69 108.27 77.04 105.13 77.04 104.38 80.78 109.13 80.78 110.26 85.14 115.41 85.14 108.91 63.94"/>
    <path class="cls-1" d="M326.14,209.23l-3.81-1.41c-2.09-.76-2.54-1.56-2.54-2.85s.58-2.31,2.81-2.31c1.82,0,2.62.71,2.67,3l4.92-.74c-.07-3.94-3.32-5.53-7.67-5.52-4.66,0-7.62,2.09-7.62,6.18,0,3.5,2,5.06,6.39,6.35,3.26,1,4.38,1.67,4.38,3.59s-1.45,2.59-3,2.59c-2.54,0-3.19-1.2-3.23-3.09l-4.91-.74v.83c0,3.88,2.17,6.12,7.76,6.12,5.35,0,8.48-2,8.48-6.45C330.82,212.23,329.85,210.61,326.14,209.23Z" transform="translate(-3.63 -135.86)"/>
    <path class="cls-1" d="M55.27,199.84H47.15v16.21h5V203h2.05c3.77,0,4.22,2.54,4.22,7.3,0,5.71-.68,7.66-4.11,7.66H47.17V221H55c6.55,0,8.4-3.45,8.39-10.9C63.36,204,62.13,199.84,55.27,199.84Z" transform="translate(-3.63 -135.86)"/>
  </g>
</svg>
