<svg id="Layer_3" data-name="Layer 3" xmlns="http://www.w3.org/2000/svg" width="461.39" height="480" viewBox="0 0 461.39 480">
  <defs>
    <style>
      .cls-1 {
        fill: #af272f;
      }

      .cls-2 {
        fill-rule: evenodd;
      }
    </style>
  </defs>
  <title>Team_Logos_Text_Florida</title>
  <path class="cls-1" d="M124.26,320.85h14.42v3.48h-10.8v8.44h9.22v3.38h-9.22v9.45h-3.61Z" transform="translate(-19.35 -11.27)"/>
  <path class="cls-1" d="M166.25,342.09h10.1v3.54H162.64V320.85h3.61Z" transform="translate(-19.35 -11.27)"/>
  <path class="cls-1" d="M207.29,320.75a12,12,0,0,1,4.83,1,12.45,12.45,0,0,1,7.53,11.51,12.2,12.2,0,0,1-1,4.83,12.35,12.35,0,0,1-6.57,6.62,12,12,0,0,1-4.83,1,11.89,11.89,0,0,1-4.81-1,12.39,12.39,0,0,1-6.55-6.62,12.2,12.2,0,0,1-1-4.83,12.42,12.42,0,0,1,7.51-11.51A11.91,11.91,0,0,1,207.29,320.75Zm0,21.44a8,8,0,0,0,3.33-.71,8.73,8.73,0,0,0,2.74-1.92,9.27,9.27,0,0,0,1.84-9.82,9.21,9.21,0,0,0-1.84-2.88,8.61,8.61,0,0,0-2.74-1.93,8,8,0,0,0-3.33-.71,7.91,7.91,0,0,0-3.31.71,8.66,8.66,0,0,0-2.72,1.93,9.28,9.28,0,0,0-2.52,6.38,9.11,9.11,0,0,0,2.52,6.32,8.79,8.79,0,0,0,2.72,1.92A7.91,7.91,0,0,0,207.29,342.19Z" transform="translate(-19.35 -11.27)"/>
  <path class="cls-1" d="M259.28,332.06a8.75,8.75,0,0,1-1.4,2.74,8.5,8.5,0,0,1-2.28,2.06.41.41,0,0,1-.17.1.42.42,0,0,0-.17.1l4.36,8.58h-3.82L252,338.17c-.27,0-.54.08-.81.1s-.56,0-.88,0h-4.42v7.33h-3.61V320.81h8a10.16,10.16,0,0,1,5.3,1.45,8.43,8.43,0,0,1,3.68,4.83q0,.17.07.3a2.16,2.16,0,0,0,.1.3v.17a1.29,1.29,0,0,1,.08.37c0,.13,0,.27.05.41v0a2.56,2.56,0,0,1,0,.4V330a2.59,2.59,0,0,1,0,.41v.07c0,.13,0,.26-.05.39a1.72,1.72,0,0,1-.08.39v.13A3.08,3.08,0,0,0,259.28,332.06Zm-8.54,3.07a4.43,4.43,0,0,0,2-.47,5.3,5.3,0,0,0,1.6-1.25,6.35,6.35,0,0,0,1.08-1.78,5.53,5.53,0,0,0,0-4.15,6,6,0,0,0-1.08-1.78,5.43,5.43,0,0,0-1.6-1.24,4.43,4.43,0,0,0-2-.47h-4.83v11.14Z" transform="translate(-19.35 -11.27)"/>
  <path class="cls-1" d="M284.92,320.85h3.61V345.6h-3.61Z" transform="translate(-19.35 -11.27)"/>
  <path class="cls-1" d="M322.48,320.85a11.28,11.28,0,0,1,4.68,1,12.09,12.09,0,0,1,3.8,2.67,12.8,12.8,0,0,1,2.57,3.93,12.26,12.26,0,0,1,.95,4.81,12.67,12.67,0,0,1-.91,4.81A12.24,12.24,0,0,1,331,342a11.93,11.93,0,0,1-3.8,2.65,11.54,11.54,0,0,1-4.76,1h-8.64V320.85Zm-.4,21.58a8.25,8.25,0,0,0,3.48-.73,8.45,8.45,0,0,0,2.74-2,9.11,9.11,0,0,0,1.79-2.93,10.25,10.25,0,0,0,0-7.14,8.93,8.93,0,0,0-1.81-2.93,8.64,8.64,0,0,0-2.75-2,8.17,8.17,0,0,0-3.44-.73h-4.63v18.4Z" transform="translate(-19.35 -11.27)"/>
  <path class="cls-1" d="M353.08,345.56l10.1-24.75,10.1,24.75h-3.68l-.74-2H357.53l-.78,2Zm5.67-5.13h8.85l-4.42-11.35Z" transform="translate(-19.35 -11.27)"/>
  <path d="M159.39,359.11H146.13L119.3,424.88v30.18h9.77l3.14-7.92h41.19l3,7.92h22.12Zm-19.66,68.55,13-33.41,13,33.41Z" transform="translate(-19.35 -11.27)"/>
  <polygon points="294.37 408.99 294.37 347.84 275.12 347.84 275.12 370.93 249.67 377.09 249.67 347.84 228.37 347.84 228.37 433.17 232.72 443.67 249.67 443.67 249.67 399.65 243.94 398.22 249.67 396.84 249.67 396.84 275.12 390.68 275.12 390.7 275.18 390.68 275.12 393.52 275.12 408.79 275.03 408.79 275.12 408.98 275.12 443.67 275.13 443.67 275.13 444 290.52 454.08 294.38 453.97 294.38 408.99 294.37 408.99"/>
  <polygon points="461.39 351.7 461.28 347.84 450.42 347.84 434.01 347.84 433.27 347.84 428.93 356.97 407.77 401.49 386.47 356.85 382.17 347.84 364.98 347.84 365.07 402.63 365.09 411.14 365.09 479.61 369.36 479.73 376.69 474.93 386.38 468.58 386.38 411.14 386.39 404.73 407.79 450.35 429.01 404.89 429.02 411.14 429.02 449.86 446.05 461.01 450.32 460.89 450.32 453.16 450.32 411.14 450.33 403.36 450.39 367.1 451.31 367.09 461.39 351.7"/>
  <polygon points="78.48 348.12 74.18 357.13 52.88 401.77 35.78 365.78 27.38 348.12 10.23 348.12 0.11 348.12 0 351.97 10.07 367.37 10.27 367.37 10.32 403.63 10.34 411.41 10.34 453.43 10.34 461.16 14.61 461.28 31.63 450.14 31.63 411.41 31.64 405.16 52.86 450.63 74.26 405 74.27 411.41 74.27 468.86 83.97 475.2 91.3 480 95.57 479.88 95.57 411.41 95.58 402.9 95.67 348.12 78.48 348.12"/>
  <polygon points="320.17 400.56 315.34 398.02 345.61 398.02 348.45 379.17 320.17 379.17 320.17 367.05 354.81 367.05 357.65 347.84 300.63 347.84 300.63 433.17 305.01 443.79 359.26 443.79 359.26 424.35 320.17 424.35 320.17 400.56"/>
  <polygon points="211.63 347.84 195.16 387.68 186.69 367.19 186.73 367.19 186.44 366.58 178.7 347.84 150.26 347.84 150.16 351.7 160.23 367.09 163.79 367.11 184.45 412.07 184.45 433.03 188.87 443.79 205.75 443.79 205.75 412.07 223.24 374.01 223.24 347.84 211.63 347.84"/>
  <path class="cls-2" d="M385.82,39.17a24.68,24.68,0,0,0,4.71-8.27c1.17-4.29,1.71-15-9.07-18.12a17,17,0,0,1,.73,16A10.86,10.86,0,0,0,380,24.74c1.59,5.64-.18,11.5-3.91,16.14,2.83-4.78,4-11.82-1.75-20.59-2.77-4.51-13.58-12.87-26.72-7,3.63.76,15,2.91,16.86,11.76a18.54,18.54,0,0,0-6.12-1.49,20.89,20.89,0,0,1,12.67,15.56c-2.34-5.78-7.2-11.45-16.65-11.55-5.91.53-16.2,4.77-17.79,21.12,2.27-3,5.92-11.6,16.59-9.49A5.26,5.26,0,0,0,349.52,45c7.23-6.17,16.14-4.89,21-.41C337.8,48.75,315.6,75.19,312,79.69L291.3,66.11a.9.9,0,0,0-1.24.26L281,80.24q-2.7-.8-5.46-1.48a118.08,118.08,0,0,0-48.11-1.67,116.84,116.84,0,0,0-44.79,17.15,121.86,121.86,0,0,0-54,123.16,119.82,119.82,0,0,0,17,45,123.05,123.05,0,0,0,31.76,33.89q3.31,2.39,6.77,4.53h0c.9.56,1.8,1.09,2.71,1.62l3.66.08.56-.28,24.87-12.59V189.29l31.58,52.36,31.58-52.36V289.65l24.87,12.59.56.28,4.16-.09c.75-.44,1.48-.9,2.21-1.35h0c.46-.29.93-.55,1.39-.85a120.75,120.75,0,0,0,52.71-74.41,119.8,119.8,0,0,0,1.51-48.1,121.94,121.94,0,0,0-17.12-45.52,126.46,126.46,0,0,0-15.66-20l7.85-12a.9.9,0,0,0-.26-1.24L320.94,85.51C343.3,56.93,372,50.41,372,50.41c-1.49,7.74-4.79,13.45-14.1,14.41.89,1.16,3.48,1.66,6.22.62-1.88,8.4-17.66,7.89-22,7.4,15,11.76,29.64,4.06,32,2,7.88-8.43,6.51-17.54,3.16-24.26A24,24,0,0,1,379,73.83a21.34,21.34,0,0,0,4-6c3.31,3.26-2.52,19.64-5,23.12,15.69-5.34,17.29-20.73,17.05-26.82-2-11.91-8.54-16.92-14.66-18.73,6.77,1,13.19,4.78,16.26,10.78a6,6,0,0,0-1.71-5.36c7.62.63,9.81,11.28,10.5,14.33C413.3,43.08,390,38.83,385.82,39.17ZM159.17,212.31a95.91,95.91,0,0,1,1-37.23,98.53,98.53,0,0,1,9.07-24.52q1.33-2.5,2.8-4.91c.7-1.14,1.42-2.27,2.16-3.38,1-1.49,2.07-2.94,3.16-4.37l6.53,7.72h.29l.07,94.79v22.27a97.67,97.67,0,0,1-12.09-15.63A94.62,94.62,0,0,1,159.17,212.31Zm25.07,88.51M285.6,123.38l-12.54,20.41-25.41,41.36-25.41-41.36L209.7,123.38H191.24a92.69,92.69,0,0,1,7.67-5.77A83.42,83.42,0,0,1,232,104.56a84.59,84.59,0,0,1,35.68,1.58,90.39,90.39,0,0,1,31.59,15.28c.84.64,1.66,1.3,2.49,2Zm25.45,177.5,10.68-155.23c.49.75,1,1.48,1.46,2.25.73,1.19,1.43,2.4,2.11,3.62a96.51,96.51,0,0,1,10.87,31.29,95.23,95.23,0,0,1-15.09,69.55,89.72,89.72,0,0,1-10,12.07V242.16l.08-96.53h.29L317,139Q319.48,142.23,321.73,145.65Z" transform="translate(-19.35 -11.27)"/>
</svg>
