<svg id="Layer_1" data-name="Layer 1" xmlns="http://www.w3.org/2000/svg" width="480" height="366.6" viewBox="0 0 480 366.6">
  <defs>
    <style>
      .cls-1 {
        fill: #67a2b2;
      }

      .cls-2 {
        fill: #0fefd9;
      }

      .cls-3 {
        fill: #fff;
      }

      .cls-4 {
        opacity: 0.56;
      }
    </style>
  </defs>
  <title>Team_Logos_Text_Guangzhou</title>
  <g>
    <g>
      <path class="cls-1" d="M265.8,164.7H203.12l-24.66,31.65h31.27L193.4,224h-23c-2.93,0-11.8-3.59-19-11.9-5.61-6.45-11.79-17.65-9.44-34.43,4.32-30.67,35.66-46.18,41.59-46.18h35.06l-1.23,15.42,2.35-3L279.85,66.7,213.51,96.08H187.57c-13.43,0-32,8.47-47.27,21.6-18.61,16-30.57,36.94-33.68,59-3.31,23.56,3.07,45.44,18,61.6,11.78,12.78,28.17,21,41.76,21H213.4Z" transform="translate(-10 -66.7)"/>
      <polygon class="cls-1" points="385.41 155.14 288.01 155.14 383.38 29.23 274.32 29.23 253.15 64.62 314.41 64.62 238.31 165.1 188.92 228 265.3 190.52 357.85 190.52 385.41 155.14"/>
    </g>
    <g>
      <path class="cls-2" d="M86.11,331.68H80.52l-2.92-2.25.22-.38v-8.32l-.22-.41,2.92-2.25h7.84v3.35l-.81-.67h-6l-.86.65v7l.86.65h3.63l.86-.65v-4l-.67-.79h4.14l-.67.79v5.26Z" transform="translate(-10 -66.7)"/>
      <path class="cls-2" d="M127.75,318.89l-.67-.79h4.16l-.67.79v10.18l.22.38-2.92,2.23h-5.48l-2.91-2.23.21-.38V318.89l-.67-.79h4.16l-.67.79v9.46l.84.67h3.54l.86-.67Z" transform="translate(-10 -66.7)"/>
      <path class="cls-2" d="M163.81,329.22l-.59,1.69.52.77h-4.49l.81-.79,4.54-12-.72-.82h4.79l-.7.82,4.5,12,.79.79H168.6l.71-.79-.55-1.67Zm4.09-2.59-1.65-4.56-1.55,4.56Z" transform="translate(-10 -66.7)"/>
      <path class="cls-2" d="M211.24,326v-7.12l-.67-.82h4.13l-.67.82v12l.67.79h-4l.6-.79-5-7.27v7.27l.67.79h-4.16l.67-.79v-12l-.67-.82h3.95l-.46.74Z" transform="translate(-10 -66.7)"/>
      <path class="cls-2" d="M252.9,331.68h-5.6l-2.92-2.25.22-.38v-8.32l-.22-.41,2.92-2.25h7.84v3.35l-.81-.67h-6.05l-.86.65v7l.86.65h3.63l.87-.65v-4l-.67-.79h4.13l-.67.79v5.26Z" transform="translate(-10 -66.7)"/>
      <path class="cls-2" d="M285.8,329.14l6.7-8.39h-5.86l-.81.69V318.1h8.91l2,2L289.8,329h6.28l.82-.69v3.35h-8.52Z" transform="translate(-10 -66.7)"/>
      <path class="cls-2" d="M330.93,318.07l-.67.82v3.32h5.19v-3.32l-.67-.82h4.13l-.67.82v12l.67.79h-4.13l.67-.79v-6h-5.19v6l.67.79h-4.16l.67-.79v-12l-.67-.82Z" transform="translate(-10 -66.7)"/>
      <path class="cls-2" d="M377.39,331.68h-5.88l-2.92-2.25.22-.38v-8.32l-.22-.41,2.92-2.25h5.91l2.91,2.25-.23.41v8.32l.23.4Zm-.09-10.28-.86-.65h-3.95l-.86.65v7l.86.65h3.95l.86-.65Z" transform="translate(-10 -66.7)"/>
      <path class="cls-2" d="M418.91,318.89l-.67-.79h4.16l-.67.79v10.18l.22.38L419,331.68h-5.48l-2.91-2.23.21-.38V318.89l-.67-.79h4.16l-.67.79v9.46l.84.67h3.54l.86-.67Z" transform="translate(-10 -66.7)"/>
    </g>
    <g>
      <path class="cls-3" d="M45.53,394.37c-10.39-.53-11.45-6.13-9.32-10.39s4.75-8.55,9.54-16.27,14.59-8.13,23.91-8.13,21.09,1.23,21.09,1.23l7.13-13c-31.7-3.2-43.39-1.91-56.44,3.15S23.9,365.07,18.57,374.13s-9,14.64-8.52,21.57c1,12.52,21.57,12.78,29.3,12.78,17.3,0,27.4-2.54,27.4-2.54l6.93-13.58S55.91,394.9,45.53,394.37Z" transform="translate(-10 -66.7)"/>
      <polygon class="cls-3" points="473.08 293.04 480 279.99 421.14 279.99 388.92 339.86 448.84 339.86 455.76 327.4 419.73 327.4 425.15 317.28 456.83 317.28 463.75 304.23 432.14 304.23 438.13 293.04 473.08 293.04"/>
      <path class="cls-3" d="M406.38,372H368L361.1,385h15.81l-4.85,9.09a68.34,68.34,0,0,1-13.15,1.3c-10.45-.53-11.52-6.12-9.37-10.39s5.62-10.38,10.45-18.11,14.46-7.72,23.84-7.72a212.85,212.85,0,0,1,21.95,1.6l7-13c-31.89-3.2-43.46-2.19-56.59,2.87s-18.48,14.38-23.84,23.44-9.11,14.64-8.58,21.57c1,12.52,21.71,12.78,29.48,12.78,19,0,37.37-6.92,37.37-6.92Z" transform="translate(-10 -66.7)"/>
      <path class="cls-4" d="M46.56,385" transform="translate(-10 -66.7)"/>
      <path class="cls-3" d="M214.59,346.69,152.8,406.56h24l14.53-15.39h23.1l-1.94,15.39h24l2.13-59.87Zm-11.71,32L218,362.32l-2,16.33Z" transform="translate(-10 -66.7)"/>
      <polygon class="cls-3" points="144.4 279.99 131.99 303.16 109.89 303.16 122.29 279.98 98.32 279.99 66.1 339.86 90.07 339.86 103.19 315.68 125.29 315.68 112.17 339.86 136.14 339.86 168.37 279.99 144.4 279.99"/>
      <path class="cls-3" d="M318,346.58l-57.36,0-20,49.86h9L233.91,433.3l38-40.39h-10L276,359.34h26.91c2.46,0,4.31,1.22,3.24,4.9s-3.16,9.08-10.28,9.08-11.16-.12-11.16-.12L279,385.83l8,20.84H311.1l-10.26-21c9.39-.53,18.45-2.82,23.61-11.37,6.22-10.3,3.71-6.38,6.85-13.49S329.24,346.58,318,346.58Z" transform="translate(-10 -66.7)"/>
    </g>
  </g>
</svg>
