<svg id="Layer_1" data-name="Layer 1" xmlns="http://www.w3.org/2000/svg" width="480" height="364.39" viewBox="0 0 480 364.39">
  <defs>
    <style>
      .cls-1 {
        fill: #5788ce;
      }

      .cls-2 {
        fill: #fff;
      }
    </style>
  </defs>
  <title>Team_Logos_Text_Hangzhou</title>
  <g>
    <path class="cls-1" d="M343.65,387.22A30.21,30.21,0,0,1,353,392l-.07.07s-6.69,3.39-10.6,4.43l-3-1.76h0L322.5,385l-.3-.17-.4-.24-6.22-3.62c-4.77-2.78-12.9-7.94-17.69-11H268.58l1.66-2.87h0s-3.85,1.23-12.27,1.85l-.07.12v6.65c19.38.12,39.55,1.74,48.22,6.41,7.55,4.07,21.67,13.3,26.08,16.21l.1.07.65.43,0,0,.39.25.2.13a13.15,13.15,0,0,1,.91,1l.06.06a49.28,49.28,0,0,1,5.46,9.18c4.48-.07,14.76-4.65,18.58-6.42V382.84l-9.19-5.52Zm-126.08-2.66h2.06c4.56-2.42,12.26-4.47,19.36-6v-7.32a151,151,0,0,0-15.34,2.8Zm113.7-14.65H301.2c10.49,3.33,22.16,9.51,23.94,10.47Zm-140.46,4.78-6.33,10.93c2.81,1.2,6.24,2.62,8.68,3.62L200,377.36l-1.2.11S194.67,376.07,190.81,374.69Zm250.89.52a67.47,67.47,0,0,1-11.12,8.86s7.65,1.22,23.89-9.64A32,32,0,0,1,441.7,375.21Zm17.2-14.77c-7.21,1.74-17.89,1.65-17.89,1.65l-11-.33-36,30,.16.14c8.86-3.61,25.87-8.28,25.87-8.28.78-6.35,8.05-13.47,8.05-13.47a28.58,28.58,0,0,1,11.06-1.65c4.34.18,2.86,3.65,2.86,3.65,7.65-1.82,23-5,23-5a47.09,47.09,0,0,0,7.39-5.3A188.81,188.81,0,0,0,490,346.37C482.27,351.15,466.11,358.71,458.9,360.44ZM272.84,350.28A23.09,23.09,0,0,1,266,355l-3,5.16a70,70,0,0,1,12.26-1.79l4-6.87h0l.13-.22h18.27L284.22,342s-9.94-1.28-10.16-1.12c-3.22,2.25-12.17-2.78-12.17-2.78l-16.07-6.67a62.27,62.27,0,0,1,7.56,5.39c2.43,2.25,5.91,4.86,5.91,4.86C269.54,342.9,272.84,350.28,272.84,350.28ZM233.6,338.64c-.2-.07,4-2.35,13.55-3.39l-24.76-4.62S233.79,338.71,233.6,338.64Z" transform="translate(-10 -67.81)"/>
    <path class="cls-2" d="M268.05,351.54h0l-52.9-.13-.08.13H215L168.5,431.9h0l0,0,21.63.09.05-.09h.08L207,402.88h32v29.31h18.9V369l10.16-17.47Zm-50.48,33L226,369.91h13v14.65Z" transform="translate(-10 -67.81)"/>
    <polygon class="cls-2" points="164.45 335.13 194.21 283.73 194.1 283.73 194.18 283.6 95.54 283.6 95.45 283.73 95.42 283.73 83.16 302.1 83.17 302.1 161.87 302.1 153.43 316.7 106.61 316.7 106.66 316.76 106.64 316.76 112.34 323.21 99.25 345.72 81.33 345.72 46.71 302.1 69.31 302.1 83.84 283.6 7.04 283.73 7.04 283.73 6.62 283.73 55.79 345.72 12.43 345.72 0 364.09 110.18 364.21 127.15 335.07 164.45 335.13"/>
    <path class="cls-2" d="M442.53,351.32H413.82l-36.31,30.19V351.32H279.39l-.12.22h0l-10.68,18.37h62.69l-8.58,14.65h-.89l17.5,10.17,19.27-33.29v68.34l-32.06-26.86,8,0,.88-1.52a18.15,18.15,0,0,0-1.87-2.24s-13.52-9-23.07-14.62H264.11l4.47,4.81V432h0v.09h19.11V402.88h9l34.65,29.23h46.21V405.47l2.13-1.78,33.83,28.42h29L394,391.78Z" transform="translate(-10 -67.81)"/>
    <polygon class="cls-2" points="221.98 143.65 432.45 82.2 338.86 82.2 371 56.49 191.12 62.92 244.41 0 101.87 40.42 44.15 113.59 62.63 110.47 70.79 103.53 101.72 69.13 150.25 54.28 176.66 38.98 185.3 48.54 167.44 69.79 153.77 76.69 160.63 80.78 283.59 79.61 269.01 103.36 190.51 107.18 188.94 122.93 173.35 139.42 169.85 156.06 156.23 169.58 142.23 187.88 75.25 176.66 73.13 176.93 98.26 216.79 153.29 216.79 252.1 163.34 229.21 161.33 221.98 143.65"/>
    <g>
      <path class="cls-1" d="M139.79,322.12v-4.69H134.7v4.69h-1.65V311.29h1.65v4.27h5.09v-4.27h1.63v10.83Z" transform="translate(-10 -67.81)"/>
      <path class="cls-1" d="M172.51,322.12l-.81-2.21h-4.62l-.83,2.21h-1.7l4.22-10.83h1.42l4.11,10.83Zm-3.12-8.38-1.63,4.34H171Z" transform="translate(-10 -67.81)"/>
      <path class="cls-1" d="M236.26,322.12H231c-1,0-1.6-.81-1.6-2.1v-6.64c0-1.26.63-2.09,1.6-2.09h5.29c1,0,1.61.79,1.61,2.09v.78l-1.65.39v-1.4H231v7.07h5.2v-2.49h-2.65V316h4.31v4A1.9,1.9,0,0,1,236.26,322.12Z" transform="translate(-10 -67.81)"/>
      <path class="cls-1" d="M261.07,322.12v-1l5.21-8h-4.71v-1.88h7.36v.92l-5.26,8H269v1.88Z" transform="translate(-10 -67.81)"/>
      <path class="cls-1" d="M298.89,322.12v-4.69H293.8v4.69h-1.65V311.29h1.65v4.27h5.09v-4.27h1.63v10.83Z" transform="translate(-10 -67.81)"/>
      <path class="cls-1" d="M330.65,322.12h-5.34c-1,0-1.59-.84-1.59-2.1v-6.64c0-1.31.59-2.09,1.59-2.09h5.34c1,0,1.61.78,1.61,2.09V320C332.26,321.26,331.61,322.12,330.65,322.12Zm0-9h-5.26v7.09h5.26Z" transform="translate(-10 -67.81)"/>
      <path class="cls-1" d="M362,322.12h-4.9c-.95,0-1.6-.86-1.6-2.1v-8.73h1.66v8.95h4.78v-8.95h1.66V320C363.56,321.26,362.9,322.12,362,322.12Z" transform="translate(-10 -67.81)"/>
      <polygon class="cls-1" points="194.46 243.48 194.46 248.93 189.33 243.48 187.63 243.48 187.63 254.31 189.33 254.31 189.33 246.51 194.46 251.89 194.46 254.31 196.17 254.31 196.17 243.48 194.46 243.48"/>
    </g>
  </g>
</svg>
