<svg id="Layer_1" data-name="Layer 1" xmlns="http://www.w3.org/2000/svg" width="414.7" height="480" viewBox="0 0 414.7 480">
  <defs>
    <style>
      .cls-1 {
        fill: #fff;
      }

      .cls-2 {
        fill: #97d700;
      }
    </style>
  </defs>
  <title>Team_Logos_Text_Houston</title>
  <g>
    <g id="HOUSTON">
      <path class="cls-1" d="M95.86,384.5h-7V374.1H84.41v25.11h4.45v-10.4h7v10.4h4.49v-25.1H95.9ZM136,374.1h-4.45a5.7,5.7,0,0,0-5.72,5.68h0V393.5a5.68,5.68,0,0,0,5.64,5.72H136a5.7,5.7,0,0,0,5.72-5.68h0V379.83a5.7,5.7,0,0,0-5.68-5.72h0Zm1.27,18.57A2,2,0,0,1,135,394.9h-2.54a2,2,0,0,1-2.23-2.23v-12a2,2,0,0,1,2.23-2.23H135a2,2,0,0,1,2.23,2.23Zm41.39,0a2,2,0,0,1-2.23,2.23h-2.54a2,2,0,0,1-2.23-2.23V374.11h-4.45V393.5a5.68,5.68,0,0,0,5.64,5.72h4.52a5.7,5.7,0,0,0,5.72-5.68h0V374.11h-4.42Zm33.48-14.24h2.54a2,2,0,0,1,2.22,1.76,1.93,1.93,0,0,1,0,.24l4.45-1.11a5.75,5.75,0,0,0-5.72-5.21h-4.45a5.7,5.7,0,0,0-5.72,5.68h0v1.88a6.05,6.05,0,0,0,4.23,5.75l5.79,2.32a1.83,1.83,0,0,1,1.43,2v.86a2,2,0,0,1-2.23,2.23h-2.54a2,2,0,0,1-2.22-1.75c0-.11,0-.21,0-.32l-4.45,1.11a5.7,5.7,0,0,0,5.72,5.28h4.45a5.7,5.7,0,0,0,5.73-5.67h0V391c0-2.64-1.72-4.26-4.16-5.25l-6-2.38c-1.08-.45-1.3-1-1.3-2.45v-.32a2,2,0,0,1,2.24-2.22Zm31.57,0h5.72v20.79h4.45V378.43h5.72v-4.32H243.7Zm51.56-4.32H290.8a5.7,5.7,0,0,0-5.72,5.68h0V393.5a5.68,5.68,0,0,0,5.64,5.72h4.53a5.7,5.7,0,0,0,5.72-5.68h0V379.83a5.7,5.7,0,0,0-5.68-5.72h0Zm1.27,18.57a2,2,0,0,1-1.76,2.22,2.81,2.81,0,0,1-.41,0h-2.54a2,2,0,0,1-2.23-2.23v-12a2,2,0,0,1,2.23-2.23h2.54a2,2,0,0,1,2.23,2.23Zm38.25-18.57V388.8l-7.25-14.69h-4.17v25.11h4.45V384.6l7.28,14.62h4.16V374.11Z"/>
    </g>
    <g>
      <polygon class="cls-2" points="160.25 427.41 177.65 427.41 177.65 415.68 128.91 415.68 128.91 427.41 146.32 427.41 146.32 442.95 140.13 447.97 146.32 452.99 146.32 479.98 160.25 479.98 160.25 452.99 166.44 447.97 160.25 442.95 160.25 427.41"/>
      <polygon class="cls-2" points="197 463.6 197 453 203.19 447.99 197 442.97 197 415.7 183.07 415.7 183.07 442.97 176.88 447.99 183.07 453 183.07 470.82 194.31 480 223.59 479.98 223.59 468.25 202.75 468.25 197 463.6"/>
      <polygon class="cls-2" points="355.34 415.7 341.41 427.55 341.41 463.6 335.66 468.25 331.92 468.25 331.92 427.4 317.99 427.4 317.99 468.25 314.25 468.25 308.5 463.6 308.5 427.55 294.57 415.7 294.57 442.97 288.38 447.99 294.57 453 294.57 470.95 305.61 480 344.12 480 355.34 470.95 355.34 453 361.53 447.99 355.34 442.97 355.34 415.7"/>
      <path class="cls-2" d="M279.62,425.15l-11.69-9.47H240.35l-11.69,9.47V443l-6.19,5,6.19,5v27l13.93-11.33V453l.23-.18h22.92v15.85L279.62,480V453l6.19-5-6.19-5ZM265.69,443H242.54V432l5.51-4.16h12.13l5.51,4.16Z"/>
      <polygon class="cls-2" points="122.48 415.68 108.56 427.01 108.56 443.28 102.76 447.97 108.56 452.67 108.56 463.67 103.05 467.83 90.92 467.83 85.41 463.67 85.41 452.8 91.37 447.97 85.41 443.14 85.41 427.01 71.48 415.68 71.48 442.67 65.29 447.69 71.48 452.71 71.48 470.53 83.17 480 110.8 480 122.48 470.53 122.48 452.71 128.68 447.69 122.48 442.67 122.48 415.68"/>
      <path class="cls-2" d="M57.41,442.67V425.15l-11.69-9.47H18.1L6.41,425.15v17.52L0,447.84,6.41,453v17.52L18.1,480H45.72l11.69-9.47V453l6.4-5.17Zm-13.93.6L37.69,448l5.79,4.69v11L38,467.85H25.84l-5.49-4.18V452.8l6-4.8-6-4.83V432l5.51-4.16H38L43.49,432Z"/>
      <polygon class="cls-2" points="398.51 447.5 398.51 440.37 389.99 440.37 378.67 430.89 382.71 427.85 394.84 427.85 400.35 432.01 400.35 437.94 414.28 437.94 414.28 425.15 402.59 415.68 374.96 415.68 363.27 425.15 363.27 434.39 379.23 447.73 379.23 454.88 387.79 454.88 399.28 464.48 394.84 467.83 383.05 467.83 377.54 463.67 377.54 457.33 363.61 457.33 363.61 470.53 375.3 480 402.59 480 414.7 470.3 414.7 461.05 398.51 447.5"/>
    </g>
    <polygon class="cls-2" points="211.12 0 225.41 43.97 271.65 43.97 234.24 71.15 248.53 115.12 211.12 87.94 173.72 115.12 188.01 71.15 150.6 43.97 196.84 43.97 211.12 0"/>
    <path class="cls-1" d="M315.07,108.85l-2.31.61c-38.1,4.5-55.64,17.93-55.64,17.93-6.61,6.44-10.88,8.21-10.88,8.21a46,46,0,0,1-9.8,1.9c-.61-.14-2.23,1.37-2.23,1.37a29.36,29.36,0,0,0-12.86,14.66,33.72,33.72,0,0,0-4.58-1.74,22.43,22.43,0,0,0-11.39-.06,35,35,0,0,0-4.86,1.8,29.3,29.3,0,0,0-12.84-14.67s-1.62-1.5-2.23-1.37a46,46,0,0,1-9.8-1.9s-4.27-1.76-10.88-8.21c0,0-17.53-13.43-55.64-17.93l-2.31-.61s-.44.4-.18,1.51l7.71,37.94,4.38-3.17s.36-.45,1.7-.49c0,0,22-1.51,28.53,6.21,0,0,2.39,3.32,2.74,6.15,0,0,.61,1.61-3.49,4.4,0,0-8.06,3.66-9.67,6.93a20.94,20.94,0,0,0-.35,12.46s.7,2.35,1.35,4.27c0,0,2.16,6.41,12.19,6.93,0,0,6.07.31,7.73,2.79a16.89,16.89,0,0,1,2.66,5.1L165,212.42a11.68,11.68,0,0,0,2.88,5.93s4.33,4.73,6.45,6.51c0,0,.26.19.22.85v22.46a4.23,4.23,0,0,0,3,4.16,1.68,1.68,0,0,1,1.15.69,19.7,19.7,0,0,1,3.36,7.16l2,68.66s-.59,1.37,3.87,4l.62.12,7.22,1,1.09.6h1.11v6.86s-.11,1.91,3.21,2.46h5.62s2.71-.14,2.57-2.52v-1.27h3.34v1.27c-.14,2.38,2.57,2.52,2.57,2.52h5.62c3.32-.55,3.21-2.46,3.21-2.46V334.6h1.11l1.09-.6,7.22-1,.62-.12c4.47-2.62,3.87-4,3.87-4l2-68.66a19.7,19.7,0,0,1,3.36-7.16,1.68,1.68,0,0,1,1.15-.69,4.23,4.23,0,0,0,3-4.16v-22.5c0-.67.22-.85.22-.85,2.12-1.78,6.45-6.51,6.45-6.51a11.68,11.68,0,0,0,2.88-5.93l2.83-12.55a16.89,16.89,0,0,1,2.66-5.1c1.66-2.48,7.73-2.79,7.73-2.79,10-.52,12.19-6.93,12.19-6.93.65-1.92,1.35-4.27,1.35-4.27a20.94,20.94,0,0,0-.35-12.46c-1.61-3.27-9.67-6.93-9.67-6.93-4.1-2.79-3.49-4.4-3.49-4.4.35-2.83,2.74-6.15,2.74-6.15,6.53-7.71,28.53-6.21,28.53-6.21,1.34,0,1.7.49,1.7.49l4.38,3.17,7.73-37.94C315.51,109.25,315.07,108.85,315.07,108.85ZM158,186.12A11,11,0,0,1,150.3,188a8.57,8.57,0,0,1-6.77-6,17.88,17.88,0,0,1-.95-7.81c.68-4.06,3.77-4.72,7.72-5.23,6.35-.83,7.72,1.82,7.72,1.82,2.3,3,2.3,10.49,2.3,10.49a6.87,6.87,0,0,1-2.36,4.87Zm57,130a7.18,7.18,0,0,1-2.16,5.59V333h-3.67V321.73a7.18,7.18,0,0,1-2.16-5.59L206.69,247a6.7,6.7,0,0,1,2.21-4.51H213a6.7,6.7,0,0,1,2.21,4.51Zm1.81-154-2.7,5.47a22.76,22.76,0,0,0-.9,2.24v57h-4.43v-57a22.76,22.76,0,0,0-.9-2.24l-2.7-5.47a3,3,0,0,1,.33-3.11c6.25-3.66,10.93,0,10.93,0a3,3,0,0,1,.36,3.1Zm54.86,6.82c3.94.51,7,1.17,7.72,5.23a17.83,17.83,0,0,1-1,7.83,8.57,8.57,0,0,1-6.77,6,11,11,0,0,1-7.67-1.85,6.86,6.86,0,0,1-2.35-4.87s0-7.5,2.3-10.49c.05,0,1.58-2.67,7.76-1.87Z"/>
    <path class="cls-2" d="M101.35,107.92A13.62,13.62,0,0,1,98,107,30.49,30.49,0,0,1,84.77,82.66S82.35,65.44,93.05,50.9V49.2s-26.78,21-26.78,48.31c0,0,.66,21.1,7.19,30.39,0,0,9.61,14,36.58,19.59Z"/>
    <path class="cls-2" d="M328.87,49.2v1.7c10.66,14.54,8.25,31.74,8.25,31.74A30.46,30.46,0,0,1,323.86,107a13.09,13.09,0,0,1-3.18.89L312,147.45c26.86-5.56,36.43-19.56,36.43-19.56,6.53-9.3,7.19-30.39,7.19-30.39C355.65,70.16,328.87,49.2,328.87,49.2Z"/>
  </g>
</svg>
