<svg id="Layer_2" data-name="Layer 2" xmlns="http://www.w3.org/2000/svg" width="469" height="480.04" viewBox="0 0 469 480.04">
  <defs>
    <style>
      .cls-1 {
        fill: none;
      }

      .cls-2 {
        fill: #fff;
      }

      .cls-3 {
        fill: #1c2b39;
      }

      .cls-4 {
        fill: #59cbe8;
      }

      .cls-5 {
        fill: #ff8200;
      }
    </style>
  </defs>
  <title>Team_Logos_Text_London</title>
  <g>
    <path class="cls-1" d="M327.73,278.28c6.66,5.32,13.33,10.8,18.68,15.25q-2.08,2.06-4.23,4Z" transform="translate(-15.52 -10)"/>
    <path class="cls-2" d="M32.89,468.31c0-.85-.59-1.32-1.66-1.32h-7c-1.07,0-1.66.47-1.66,1.32V471c0,.86.59,1.13,1.66,1.32l9.07,1.55c3.81.66,7,2.49,7,5.6v5c0,3.27-2.83,5.52-6.93,5.52H22.45c-4.1,0-6.93-2.25-6.93-5.52V480.9h6.83v2.49c0,.85.59,1.32,1.66,1.32h7.61c1.07,0,1.66-.47,1.66-1.32v-3c0-.86-.59-1.13-1.66-1.32l-9.07-1.55c-3.81-.66-7-2.49-7-5.6v-4.74c0-3.27,2.83-5.52,6.93-5.52H32.79c4.1,0,6.93,2.25,6.93,5.52v3.27H32.89Z" transform="translate(-15.52 -10)"/>
    <path class="cls-2" d="M151.57,461.86h7v28h-7Z" transform="translate(-15.52 -10)"/>
    <path class="cls-2" d="M222.17,467.07v22.78h-7V467.07H206v-5.21h25.37v5.21Z" transform="translate(-15.52 -10)"/>
    <path class="cls-2" d="M270.75,461.86h23v5.29h-16v6h15.9v5.29h-15.9v11.43h-7Z" transform="translate(-15.52 -10)"/>
    <path class="cls-2" d="M342.31,461.86h7v28h-7Z" transform="translate(-15.52 -10)"/>
    <path class="cls-2" d="M484.48,461.86v5.29h-16v5.75h15.14v5.29h-15.1v6.38h16v5.29h-23v-28Z" transform="translate(-15.52 -10)"/>
    <path class="cls-2" d="M97,461.86H79v10.39h7v-5.1h9.17c1.07,0,1.66.47,1.66,1.32v4.9c0,.86-.59,1.32-1.66,1.32H79.06v15.16h7V480H97c4.1,0,6.93-2.26,6.93-5.52V467.4C103.94,464.11,101.11,461.86,97,461.86Z" transform="translate(-15.52 -10)"/>
    <path class="cls-2" d="M416.5,479.23c2.93-.66,4.78-2.64,4.78-5.29v-6.57c0-3.26-2.83-5.52-6.93-5.52h-17.9v10h7v-4.68h9.12c1.07,0,1.66.47,1.66,1.32V473c0,.85-.59,1.32-1.66,1.32H396.45v15.59h7v-10.4h5.66l5.66,10.38h7.56Z" transform="translate(-15.52 -10)"/>
    <path class="cls-3" d="M182.27,339.89c20.24,22.8,43.18,41.65,68.06,55.4,24.84-13.73,47.75-32.5,68-55.2a671.86,671.86,0,0,0-136-.2Z" transform="translate(-15.52 -10)"/>
    <path class="cls-3" d="M422.91,178.65c10.21-44.34,13.59-87.86,10.5-128.87l-.21-1.53-.55-.36C386.65,24.58,322,10,249.76,10S113.81,24.55,67.8,47.8l-.11,2A430.25,430.25,0,0,0,77.94,178.57c26.33,114.3,93.39,205.3,172.36,248.24C329.26,383.87,396.58,293,422.91,178.65ZM251.68,401l-1.35.73L249,401c-34.72-18.88-66.9-48.45-93-85.5-27-38.2-47.09-83.91-58.21-132.17a376.42,376.42,0,0,1-9-112.82L89,67.23l1.44-.73c42.33-21.39,99-33.17,159.49-33.17,61,0,118,11.81,160.3,33.25l.28.16,1.55,1,.37,2.76c2.75,36.49-.35,74.47-9.2,112.89-11.11,48.23-31.28,93.92-58.32,132.14C318.64,352.5,286.43,382,251.68,401Z" transform="translate(-15.52 -10)"/>
    <path class="cls-4" d="M402.21,146.16C360.69,129.82,307.83,120,249.79,120c-57.08,0-108.65,9.51-149.69,25.37l-3.35,1.33c.21,1.56.45,3.13.68,4.7q2.27,15.31,5.78,30.65a389.89,389.89,0,0,0,19.13,60.32q3.65,8.9,7.71,17.51a336.79,336.79,0,0,0,52.22,80,671.86,671.86,0,0,1,136,.2,336.43,336.43,0,0,0,52.47-80.16q4.07-8.62,7.74-17.54a388.18,388.18,0,0,0,19.15-60.3q3.86-16.74,6.22-33.33c.09-.61.19-1.22.27-1.83Z" transform="translate(-15.52 -10)"/>
    <path class="cls-5" d="M412.35,70.46,412,67.7l-1.55-1-.28-.16c-42.33-21.44-99.26-33.25-160.3-33.25-60.52,0-117.16,11.78-159.49,33.17l-1.44.73-.19,3.28a376.42,376.42,0,0,0,9,112.82c11.12,48.27,31.25,94,58.21,132.17,26.15,37.06,58.33,66.62,93,85.5l1.35.73,1.35-.73c34.75-18.9,67-48.45,93.15-85.47,27-38.22,47.21-83.92,58.32-132.14C412,144.93,415.1,106.95,412.35,70.46Zm-8.16,76.19v.28c-.08.61-.18,1.22-.27,1.83q-2.38,16.58-6.22,33.33a388.18,388.18,0,0,1-19.15,60.3q-3.67,8.92-7.74,17.54a336.43,336.43,0,0,1-52.47,80.16c-20.22,22.69-43.13,41.47-68,55.2-24.87-13.75-47.82-32.59-68.06-55.4a336.79,336.79,0,0,1-52.22-80q-4.05-8.6-7.71-17.51A389.89,389.89,0,0,1,103.21,182q-3.53-15.33-5.78-30.65c-.23-1.57-.47-3.13-.68-4.7a1.38,1.38,0,0,0-.06-.49A362.16,362.16,0,0,1,94.37,70.8v-.1c41.39-20.54,96.53-31.84,155.49-31.84,59.76,0,115.42,11.43,156.89,32.21A358.31,358.31,0,0,1,404.19,146.65Z" transform="translate(-15.52 -10)"/>
    <path class="cls-2" d="M406.75,71.09c-41.47-20.78-97.13-32.21-156.89-32.21-59,0-114.1,11.3-155.49,31.84v.1a362.16,362.16,0,0,0,2.32,75.36,1.38,1.38,0,0,0,.06.49l3.35-1.33c41-15.86,92.61-25.37,149.69-25.37,58,0,110.89,9.84,152.42,26.18l1.94.77v-.28A358.31,358.31,0,0,0,406.75,71.09Z" transform="translate(-15.52 -10)"/>
    <path class="cls-5" d="M268.38,219.77a17.62,17.62,0,1,0-17.8,17.44h.16a17.52,17.52,0,0,0,17.64-17.4Z" transform="translate(-15.52 -10)"/>
    <g>
      <polygon class="cls-3" points="289.28 189.37 340.47 187.46 340.47 185.12 299.58 183.59 289.28 189.37"/>
      <polygon class="cls-3" points="170.97 183.56 129.33 185.12 129.33 187.46 181.46 189.41 170.97 183.56"/>
      <path class="cls-3" d="M300.75,247.07c-13.84.87-13.88,1.19-23.07-9.09a10.52,10.52,0,0,1-2.25-5.6,89.8,89.8,0,0,1-.82-9.84v-.47l4.4-2.93v-6l-7.84,4.72c0,.63.38,1.26.38,1.89a12.43,12.43,0,0,1,0,1.93v.58c-.06.45-.09.89-.18,1.33a2.69,2.69,0,0,1-.11.62c-.11.47-.22.93-.36,1.39a1.39,1.39,0,0,1-.12.43q-.27.84-.62,1.65c-.09.22-.2.43-.29.65s-.31.66-.48,1-.26.49-.4.73-.33.54-.5.81-.31.5-.48.74-.35.46-.52.69q-.55.72-1.17,1.4l-.4.44c-.27.28-.55.55-.84.82l-.37.33a21.17,21.17,0,0,1-4.8,3.2l-.24.12c-.43.2-.87.4-1.32.57h0l1.9,33.82,30.2-3.91q27.24-3,54.46-6.12l25.86-3q4.07-8.62,7.74-17.54Q339.63,244.67,300.75,247.07Zm50.35,13.4h0a5.12,5.12,0,0,1-2.67-.87,9.52,9.52,0,0,1-1.15-.85c-.29-.25-.56-.5-.82-.76a6.52,6.52,0,0,1-1.54-2.61,7.15,7.15,0,0,1-.32-1.55,6.88,6.88,0,0,1,0-.69,6.66,6.66,0,0,1,6.53-6.56h.08c3.58,0,6.48,3.41,6.46,7a6.92,6.92,0,0,1-6.57,6.88Z" transform="translate(-15.52 -10)"/>
      <path class="cls-3" d="M238.95,237l-.12-.09c-.52-.36-1-.73-1.52-1.14s-1-.91-1.53-1.41a20.87,20.87,0,0,1-6.08-15.07c0-.48.75-.95.79-1.42l-8.67-5.25v6.48l5.86,3.19v.22c0,3.28-.84,6.57-1.21,9.84A10.79,10.79,0,0,1,224,238c-9.19,10.28-9.32,10-23.16,9.09q-39.24-2.47-78.52-4.72,3.65,8.9,7.71,17.51L156.6,263q33.82,3.93,67.68,7.57h.48l15.94,2.06L242.5,239h0A20.82,20.82,0,0,1,238.95,237Zm-82.76,19.65a7.27,7.27,0,0,1-2.11,2.54,6.08,6.08,0,0,1-3.64,1.25h0c-1.76,0-3.41-1.22-4.64-2.47a6.87,6.87,0,0,1-1.88-4.85,6.66,6.66,0,0,1,6.53-6.56h.08c3.58,0,6.48,3.41,6.46,7a7,7,0,0,1-.8,3.12Z" transform="translate(-15.52 -10)"/>
      <path class="cls-3" d="M250.74,240.64a21.24,21.24,0,0,1-4.83-.58l-3.19,59.66c.87,9.18,3.72,13.73,7.79,18.52,4.07-4.79,6.92-8.72,7.79-17.9L255,240.21A21.17,21.17,0,0,1,250.74,240.64Z" transform="translate(-15.52 -10)"/>
      <path class="cls-3" d="M271.1,214.31l50-28c6.28-4.83,9.56-9.5,11.56-14.5q.5-1.25.9-2.53c-6.24-.86-12.47-.3-20.72,3.87l-13.21,9.35-33,23.36A20.87,20.87,0,0,1,271.1,214.31Z" transform="translate(-15.52 -10)"/>
      <path class="cls-3" d="M180.48,186.33l49.94,28a20.8,20.8,0,0,1,4.55-8.44l-26.27-18.6-20-14.12c-8.25-4.17-14.48-4.74-20.72-3.87a32.74,32.74,0,0,0,2.33,5.61A35.39,35.39,0,0,0,180.48,186.33Z" transform="translate(-15.52 -10)"/>
      <path class="cls-3" d="M245.91,199.3a20.89,20.89,0,0,1,3.39-.51c.48,0,1-.05,1.44-.05H251a21,21,0,0,1,13,4.71l15.79-11.17-9.33-.35-6.52-.24-8.8-15.54-3.37-42H249.7l-3.37,42-8.78,15.55-13.7.49-2.22.08,15.83,11.18A21.18,21.18,0,0,1,245.91,199.3Z" transform="translate(-15.52 -10)"/>
      <path class="cls-3" d="M150.43,248.53a4.64,4.64,0,0,0-.51,9.24h.51a4.68,4.68,0,0,0,4.65-4.64v-.43A4.65,4.65,0,0,0,150.43,248.53Z" transform="translate(-15.52 -10)"/>
      <path class="cls-3" d="M351.1,248.53a4.65,4.65,0,0,0-4.5,3.47,4.6,4.6,0,0,0-.15.9v.29a4.64,4.64,0,0,0,4.13,4.6h.92a4.63,4.63,0,0,0-.39-9.25Z" transform="translate(-15.52 -10)"/>
    </g>
    <g>
      <path class="cls-3" d="M142.4,109.43c-7.47,1.89-14.92,4-22.26,6.32V72.19c-4.22,1.32-6.33,2-10.52,3.44v53.71c10.8-3.65,21.72-7,32.78-9.76Z" transform="translate(-15.52 -10)"/>
      <path class="cls-3" d="M158.61,116.06c7.19-1.55,10.8-2.25,18-3.49a12.36,12.36,0,0,0,10.68-12.29V67.16c0-6.27-4.37-10-10.68-8.89-7.24,1.24-10.85,1.94-18,3.49a13.25,13.25,0,0,0-10.57,13v33.12C148,114.15,152.35,117.41,158.61,116.06Zm.15-41.66a2.92,2.92,0,0,1,2.54-3.07c5-1.05,7.58-1.54,12.65-2.45,1.65-.29,2.55.45,2.55,2.09V99.91a2.81,2.81,0,0,1-2.55,3c-5.07.9-7.6,1.39-12.65,2.45-1.64.34-2.54-.36-2.54-2Z" transform="translate(-15.52 -10)"/>
      <path class="cls-3" d="M208.17,71.41q10.11,17.53,20.08,35.14c4.7-.24,7.06-.33,11.76-.44V52.4c-4.1.1-6.15.17-10.25.37V89.4q-10-17.64-20.08-35.21c-4.69.44-7,.69-11.72,1.26q0,26.85,0,53.71c4.08-.49,6.12-.72,10.2-1.12Q208.17,89.72,208.17,71.41Z" transform="translate(-15.52 -10)"/>
      <path class="cls-3" d="M291.22,97.28V64.76A11.16,11.16,0,0,0,280.47,53.3q-14.21-1-28.46-1V106q14.24,0,28.46,1C286.84,107.44,291.22,103.55,291.22,97.28Zm-13.48-.6c-5.91-.37-8.87-.5-14.79-.67V62.59c5.92.17,8.88.3,14.79.67a2.48,2.48,0,0,1,2.58,2.7V94.31a2.14,2.14,0,0,1-2.58,2.37Z" transform="translate(-15.52 -10)"/>
      <path class="cls-3" d="M311.32,110.53c7.27,1,10.89,1.61,18.12,2.94,6.3,1.16,10.63-2.24,10.63-8.5V71.85a12.77,12.77,0,0,0-10.63-12.68c-7.23-1.33-10.85-1.91-18.12-2.94-6.33-.89-10.71,3-10.71,9.22V98.57C300.6,104.83,305,109.64,311.32,110.53ZM314,66.76c5.09.75,7.63,1.16,12.71,2.06a2.82,2.82,0,0,1,2.55,3v28.94c0,1.64-.9,2.37-2.55,2.08-5.07-.9-7.61-1.31-12.71-2.06a2.71,2.71,0,0,1-2.56-2.85v-29A2,2,0,0,1,314,66.76Z" transform="translate(-15.52 -10)"/>
      <path class="cls-3" d="M360.59,83.45q9.87,21.05,19.53,42.2c4.54,1.41,6.81,2.15,11.32,3.69V75.63c-3.93-1.34-5.9-2-9.86-3.23q0,18.31,0,36.63-9.65-21.18-19.51-42.27c-4.59-1.21-6.89-1.79-11.5-2.87q0,26.85,0,53.71c4,.95,6,1.44,10,2.48Q360.59,101.76,360.59,83.45Z" transform="translate(-15.52 -10)"/>
    </g>
  </g>
</svg>
