<svg id="Layer_3" data-name="Layer 3" xmlns="http://www.w3.org/2000/svg" width="480" height="398.04" viewBox="0 0 480 398.04">
  <defs>
    <style>
      .cls-1 {
        fill: #e5d456;
      }

      .cls-2 {
        fill: #fff;
      }
    </style>
  </defs>
  <title>Team_Logos_Text_VAL</title>
  <g>
    <polygon class="cls-1" points="376.6 29.55 293.41 106.08 239.88 77 186.46 106.02 103.21 29.55 84.73 0 108.59 78.7 114.27 86.92 139.95 113.14 141.09 114.58 119.93 109.27 129.05 138.93 131.76 141.54 158.91 163.33 159.67 164.18 139.69 162.51 156.82 188.32 158.33 189.49 174.87 199.75 177.74 203.78 182.12 220.25 186.79 228.07 218.41 274.02 219.38 275.14 231.63 282.89 233.29 283.78 227.34 268.73 188.32 170.76 186.65 159 187.3 159 225.17 166.98 226.41 168.9 227.31 180.49 236.27 204.78 239.89 215.69 243.52 204.78 252.48 180.49 253.38 168.9 254.62 166.98 292.48 159 293.14 159 291.46 170.76 252.45 268.73 246.49 283.78 248.15 282.89 260.4 275.14 261.38 274.02 292.99 228.07 297.67 220.25 302.04 203.78 304.92 199.75 321.45 189.49 322.97 188.32 340.1 162.51 320.12 164.18 320.88 163.33 348.03 141.54 350.73 138.93 359.86 109.27 338.69 114.58 339.84 113.14 365.52 86.92 371.21 78.7 395.06 0 376.6 29.55"/>
    <g>
      <path class="cls-2" d="M60.89,361.14h4.68v16.11h6.77V381H60.89Z" transform="translate(-10.72 -50.76)"/>
      <path class="cls-2" d="M98.5,381.43c-6.16,0-7-4-7-10.34s.84-10.34,7-10.34c6.63,0,7,4.82,7,10.34S105.13,381.43,98.5,381.43Zm0-3.12c1.9,0,2.17-1.76,2.17-7.22s-.28-7.22-2.17-7.22-2.12,1.76-2.12,7.22S96.63,378.31,98.47,378.31Z" transform="translate(-10.72 -50.76)"/>
      <path class="cls-2" d="M132.43,375v.7c0,1.51.42,2.65,2,2.65s2.12-1.23,2.12-2.37c0-4.29-8.56-1.9-8.56-9.34,0-3.18,1.7-5.85,6.52-5.85s6.36,2.37,6.36,5.44v.47h-4.52a4.09,4.09,0,0,0-.39-2.09,1.48,1.48,0,0,0-1.42-.7c-1.17,0-1.87.7-1.87,2.15,0,4.15,8.56,2.06,8.56,9.09,0,4.52-2.51,6.33-6.8,6.33-3.4,0-6.55-1-6.55-5.18V375Z" transform="translate(-10.72 -50.76)"/>
      <path class="cls-2" d="M194.72,361.14h5.85l5,19.9h-4.85l-.72-3.79H195.2l-.7,3.79h-4.85Zm2.84,3.62h-.06l-1.64,8.86h3.4Z" transform="translate(-10.72 -50.76)"/>
      <path class="cls-2" d="M232.58,361.14H238l3.85,12.93h.06V361.14h4.35V381h-5.3l-4.1-13.71h-.06V381h-4.18Z" transform="translate(-10.72 -50.76)"/>
      <path class="cls-2" d="M280.6,367.19c0-1.28-.14-3.32-1.87-3.32-1.92,0-2.15,2-2.15,7.25s.28,7.19,2.15,7.19c1.59,0,2.15-1.45,2.15-4.18v-.64h-2.2v-3.12h6.55V381H282l-.11-1.9h-.06c-.72,1.78-2.48,2.29-4.29,2.29-5,0-5.83-3.71-5.83-9.92,0-6.52.45-10.76,7.08-10.76,6,0,6.3,4.18,6.3,6.44Z" transform="translate(-10.72 -50.76)"/>
      <path class="cls-2" d="M313.21,361.14h11.51v3.79H317.9v4h6.41v3.79H317.9v4.54H325V381H313.21Z" transform="translate(-10.72 -50.76)"/>
      <path class="cls-2" d="M352.69,361.14h4.68v16.11h6.77V381H352.69Z" transform="translate(-10.72 -50.76)"/>
      <path class="cls-2" d="M391.13,361.14h11.51v3.79h-6.83v4h6.41v3.79h-6.41v4.54h7.14V381H391.13Z" transform="translate(-10.72 -50.76)"/>
      <path class="cls-2" d="M432,375v.7c0,1.51.42,2.65,2,2.65s2.12-1.23,2.12-2.37c0-4.29-8.56-1.9-8.56-9.34,0-3.18,1.7-5.85,6.52-5.85s6.36,2.37,6.36,5.44v.47H436a4.09,4.09,0,0,0-.39-2.09,1.48,1.48,0,0,0-1.42-.7c-1.17,0-1.87.7-1.87,2.15,0,4.15,8.56,2.06,8.56,9.09,0,4.52-2.51,6.33-6.8,6.33-3.4,0-6.55-1-6.55-5.18V375Z" transform="translate(-10.72 -50.76)"/>
      <g>
        <path class="cls-2" d="M177.33,395.2h-9.19v53.57h33.05v-8.72H177.33Z" transform="translate(-10.72 -50.76)"/>
        <path class="cls-2" d="M238.85,448.08h9V395.36h-9Z" transform="translate(-10.72 -50.76)"/>
        <path class="cls-2" d="M447.15,395.2v8.57h17.43v45h8.71v-45h17.43V395.2Z" transform="translate(-10.72 -50.76)"/>
        <path class="cls-2" d="M120.67,397.78c-.72-1.62-1.36-2.58-3.5-2.58h-5.72c-2.14,0-2.78,1-3.5,2.58-5.25,11.81-20.6,45.82-22.93,51h7.86c2.08,0,2.78-.42,3.6-2.26,5.77-13,17.84-40.61,17.84-40.61s12.07,27.62,17.84,40.61c.82,1.84,1.51,2.26,3.6,2.26h7.86C141.27,443.59,125.92,409.58,120.67,397.78Z" transform="translate(-10.72 -50.76)"/>
        <path class="cls-2" d="M310,397.78c-.72-1.62-1.36-2.58-3.5-2.58h-5.72c-2.14,0-2.78,1-3.5,2.58-5.25,11.81-20.6,45.82-22.93,51h7.86c2.08,0,2.78-.42,3.6-2.26,5.77-13,17.84-40.61,17.84-40.61s12.07,27.62,17.84,40.61c.82,1.84,1.51,2.26,3.6,2.26h7.86C330.6,443.59,315.25,409.58,310,397.78Z" transform="translate(-10.72 -50.76)"/>
        <path class="cls-2" d="M57.85,397.46C52.08,410.45,40,438.07,40,438.07s-12.07-27.62-17.84-40.61c-.82-1.84-1.51-2.26-3.6-2.26H10.72c2.33,5.19,17.68,39.2,22.93,51,.72,1.62,1.36,2.58,3.5,2.58h5.72c2.14,0,2.78-1,3.5-2.58,5.25-11.81,20.6-45.82,22.93-51H61.44C59.36,395.2,58.66,395.62,57.85,397.46Z" transform="translate(-10.72 -50.76)"/>
        <path class="cls-2" d="M405.63,434l-25.92-37.7a2.47,2.47,0,0,0-1.59-1.11H367.2v53.6h9.28V406.87l29.06,41.85h9.06V395.2h-9Z" transform="translate(-10.72 -50.76)"/>
      </g>
    </g>
  </g>
</svg>
