<svg id="Layer_2" data-name="Layer 2" xmlns="http://www.w3.org/2000/svg" width="480.06" height="402.17" viewBox="0 0 480.06 402.17">
  <defs>
    <style>
      .cls-1 {
        fill: #fff;
      }

      .cls-2 {
        fill: none;
      }

      .cls-3 {
        fill: #381460;
      }
    </style>
  </defs>
  <title>Team_Logos_Text_GLA</title>
  <polygon class="cls-1" points="148.01 401.1 123.08 349.63 99.95 349.63 105.91 355.34 89.19 390.19 75.14 390.19 75.14 355.28 80.37 349.63 56.08 349.63 60.61 355.36 60.61 395.72 54.34 401.1 119.41 401.1 119.41 386.02 113.65 390.49 103.72 390.49 115.54 365.17 128.82 395.72 123.88 401.1 148.01 401.1"/>
  <path class="cls-1" d="M95.91,392.32c-.3,0-.48.2-.53.59a2.64,2.64,0,0,1-.53,1.24c-.49.53-1.28.56-2.52.56-1.78,0-2.32-.16-2.64-.45s-.39-2.11-.39-4.79v-9c0-.73.24-1,.63-1.07a6,6,0,0,1,.86-.07q.69,0,.69-.48c0-.48-.57-.48-.76-.48H84.38c-.21,0-.78,0-.78.48,0,.22.12.48.67.48a3.2,3.2,0,0,1,.71.06c.59.12.74.34.79,1.08s0,1.37,0,4.91v4.09c0,2.13,0,4-.11,4.92-.1.74-.22,1-.47,1a3.48,3.48,0,0,1-.78.09c-.56,0-.64.29-.64.46s.1.5.74.5h2.93c.9,0,1.71,0,2.83.07h3.94c1.27,0,1.53-.1,1.73-.83A18.48,18.48,0,0,0,96.3,393C96.36,392.79,96.36,392.32,95.91,392.32Z" transform="translate(-10 -58.91)"/>
  <path class="cls-1" d="M120.76,378c-6.79,0-9.88,4.86-9.88,9.38s3,9.38,9.64,9.38c5.83,0,9.9-4,9.9-9.8C130.43,381.48,126.73,378,120.76,378Zm.74,17.07c-4,0-6.87-3.46-6.87-8.4,0-6.1,3.42-7,5.45-7,3.85,0,6.54,3.36,6.54,8.17,0,6.57-3.62,7.27-5.11,7.27Z" transform="translate(-10 -58.91)"/>
  <path class="cls-1" d="M151,385.4l-.65-.49c-2-1.51-2.36-2.24-2.36-3.13,0-1.29,1-2.12,2.5-2.12a2.7,2.7,0,0,1,2.32,1,2.54,2.54,0,0,1,.54,1.36c0,.62.35.69.5.69.53,0,.53-.65.53-1a18.6,18.6,0,0,1,.07-2.4v-.39c0-.28-.18-.46-.53-.54a11.6,11.6,0,0,0-3.16-.4c-3.32,0-5.64,1.92-5.64,4.66,0,2.07,1.06,3.78,3.55,5.72l1.07.84c1.81,1.42,2.18,2.39,2.18,3.51a2.57,2.57,0,0,1-2.74,2.39h-.11A3,3,0,0,1,146,393a4.65,4.65,0,0,1-.2-1.11c0-.58-.32-.67-.5-.67-.49,0-.54.65-.55.86v.07c0,.44-.11,1.78-.11,3,0,.57.09.81.6,1a8.25,8.25,0,0,0,3.51.63,6.93,6.93,0,0,0,3.85-1,5,5,0,0,0,2.31-4.27C154.91,389.22,153.85,387.55,151,385.4Z" transform="translate(-10 -58.91)"/>
  <path class="cls-1" d="M204.46,395.53a4.81,4.81,0,0,1-.91-.09c-.31-.07-1-.23-1.86-2.38s-2.4-5.91-3.66-9.07c-1-2.51-1.86-4.67-2.11-5.23s-.43-.91-.83-.91-.65.48-.9,1.1l-5.84,14.6c-.47,1.19-.88,1.81-1.76,1.92a6.85,6.85,0,0,1-.69,0c-.5,0-.55.32-.55.46,0,.5.54.5.71.5.83,0,1.68,0,2.24,0h3c.55,0,.67-.27.67-.5,0-.46-.45-.46-.62-.46H191c-.66,0-.66-.27-.66-.45a4.33,4.33,0,0,1,.33-1.32l1.26-3.34H197l1.86,4.94a.27.27,0,0,1,0,.16c-.14,0-.57.06-.57.48s.43.43.85.45h4.51c.82,0,1.34,0,1.34-.5C205,395.78,204.93,395.53,204.46,395.53Zm-8.08-6.81h-3.82l1.94-5.18Z" transform="translate(-10 -58.91)"/>
  <path class="cls-1" d="M243,378.37c-.78,0-1.43,0-1.86,0h-3.23c-.31,0-.88,0-.88.48,0,.18.08.48.64.48a3.68,3.68,0,0,1,1.13.12c.36.15.6.36.62,1.85l.22,9.88-1.3-1.36c-1.14-1.19-2.55-2.67-3.46-3.58-3.54-3.51-7.17-7.42-7.2-7.46l-.21-.23c-.3-.33-.52-.57-.84-.57-.57,0-.57.8-.57,1.06l-.21,13.77c0,2-.13,2.5-.52,2.63a3.94,3.94,0,0,1-1,.11c-.56,0-.64.29-.64.46,0,.5.55.5.78.5a21,21,0,0,0,2.13-.06h1c.53,0,1.26,0,2.25,0,.2,0,.81,0,.81-.5,0-.21-.12-.46-.67-.46a3.45,3.45,0,0,1-1.12-.15c-.25-.09-.58-.42-.63-2.33L228,384l.1.11c1,1.07,3,3.31,5,5.31l3.09,3.09c1.49,1.5,2.9,2.92,3.77,3.74a1.57,1.57,0,0,0,1,.59c.57,0,.57-.72.57-1l.26-14.67c0-1.32.22-1.6.66-1.72a2.28,2.28,0,0,1,.63-.06c.62,0,.69-.33.69-.48C243.85,378.37,243.28,378.37,243,378.37Z" transform="translate(-10 -58.91)"/>
  <path class="cls-1" d="M279.89,387.23H273.8c-.21,0-.76,0-.76.5,0,.14.06.46.62.46a4.54,4.54,0,0,1,.85.06c.6.13.76.35.79,1.07s0,1.59,0,2.73v2.19c0,.4-.11.53-.28.61a5,5,0,0,1-1.86.23c-4.61,0-7.82-3.48-7.82-8.47,0-2.54.67-4.34,2-5.49a6.44,6.44,0,0,1,4.43-1.38,7.2,7.2,0,0,1,5,1.73,3,3,0,0,1,.72,1.78.48.48,0,0,0,.5.54c.53,0,.53-.55.53-.76a30.34,30.34,0,0,1,.14-3.52v-.29c0-.34-.19-.52-.58-.55a15.28,15.28,0,0,1-1.8-.25,28.34,28.34,0,0,0-4.17-.38,11.52,11.52,0,0,0-6.4,1.55,9,9,0,0,0-4.18,7.83c0,6.92,5.69,9.38,11,9.38a13.84,13.84,0,0,0,5.74-1.08c.42-.24.44-.44.44-1.07v-5.33c0-.69.25-1,.66-1.07a3.45,3.45,0,0,1,.58-.07c.42,0,.57-.25.57-.46C280.62,387.23,280.07,387.23,279.89,387.23Z" transform="translate(-10 -58.91)"/>
  <path class="cls-1" d="M312.32,392.41c-.42,0-.49.37-.52.57-.15.89-.39,1.29-.89,1.52a5.75,5.75,0,0,1-2.07.25c-2.37,0-2.48-.35-2.52-1.69v-5.39c.76,0,2.76,0,3.14.07.81.09,1,.4,1.07.7a3.75,3.75,0,0,1,.07.58v.2a.45.45,0,0,0,.42.48h.06c.48,0,.48-.54.48-.71v-1.54c.06-.78.12-1.21.16-1.44a2.38,2.38,0,0,0,0-.28.42.42,0,0,0-.38-.46h-.05c-.23,0-.38.17-.57.39s-.46.22-.94.26h-3.59v-5.83c.68,0,2.81,0,3.16.09,1.13.14,1.23.39,1.34.67a2.26,2.26,0,0,1,.12.73c0,.54.34.6.48.6s.42-.06.5-.48c0-.19.06-.67.09-1.08v-.48a9.41,9.41,0,0,1,.15-1.26,1.56,1.56,0,0,0,0-.27c0-.46-.34-.48-.41-.48a1,1,0,0,0-.31.07h-.12c-.22,0-.78.11-1,.13s-2.39,0-5.8,0h-3.35c-.21,0-.78,0-.78.48,0,.22.12.48.67.48a4.52,4.52,0,0,1,.85.06c.59.12.74.34.79,1.08s0,1.37,0,4.91v4.09c0,2.13,0,4-.11,4.92-.1.74-.22,1-.47,1a3.48,3.48,0,0,1-.78.09c-.56,0-.64.29-.64.46s.1.5.74.5h2.93c.65,0,1.35,0,2.41.07h.67c.88,0,2,0,3.36,0,.89,0,1.3,0,1.52-.81a18.42,18.42,0,0,0,.31-2.65C312.78,392.88,312.78,392.41,312.32,392.41Z" transform="translate(-10 -58.91)"/>
  <path class="cls-1" d="M342.23,392.32c-.3,0-.48.2-.53.59a2.64,2.64,0,0,1-.53,1.24c-.49.53-1.28.56-2.52.56-1.78,0-2.32-.16-2.64-.45s-.39-2.11-.39-4.79v-9c0-.73.24-1,.63-1.07a5.94,5.94,0,0,1,.86-.07q.69,0,.69-.48c0-.48-.57-.48-.76-.48H330.7c-.21,0-.78,0-.78.48,0,.22.12.48.67.48a3.2,3.2,0,0,1,.71.06c.59.12.74.34.79,1.08s0,1.37,0,4.91v4.09c0,2.13,0,4-.11,4.92-.1.74-.22,1-.47,1a3.48,3.48,0,0,1-.78.09c-.56,0-.64.29-.64.46s.1.5.74.5h2.93c.9,0,1.72,0,2.83.07h3.94c1.27,0,1.53-.1,1.73-.83a18.44,18.44,0,0,0,.36-2.75C342.69,392.79,342.69,392.32,342.23,392.32Z" transform="translate(-10 -58.91)"/>
  <path class="cls-1" d="M371.78,392.41c-.42,0-.49.37-.52.57-.15.89-.39,1.29-.89,1.52a5.75,5.75,0,0,1-2.07.25c-2.37,0-2.48-.35-2.52-1.69v-5.39c.76,0,2.76,0,3.14.07.81.09,1,.4,1.07.7a3.75,3.75,0,0,1,.07.58v.2a.45.45,0,0,0,.42.48h.06c.48,0,.48-.54.48-.71v-1.54c.06-.78.12-1.21.16-1.44a2.38,2.38,0,0,0,0-.28.42.42,0,0,0-.38-.46h-.05c-.23,0-.38.17-.57.39s-.46.22-.94.26h-3.59v-5.83c.68,0,2.81,0,3.16.09,1.13.14,1.23.39,1.34.67a2.26,2.26,0,0,1,.12.73c0,.54.34.6.48.6s.42-.06.5-.48c0-.19.06-.67.09-1.08v-.48a9.41,9.41,0,0,1,.15-1.26,1.56,1.56,0,0,0,0-.27c0-.46-.34-.48-.41-.48a1,1,0,0,0-.31.07h-.12c-.22,0-.78.11-1,.13s-2.39,0-5.8,0h-3.35c-.21,0-.78,0-.78.48,0,.22.12.48.67.48a4.52,4.52,0,0,1,.85.06c.59.12.74.34.79,1.08s0,1.37,0,4.91v4.09c0,2.13,0,4-.11,4.92-.1.74-.22,1-.47,1a3.48,3.48,0,0,1-.78.09c-.56,0-.64.29-.64.46s.1.5.74.5h2.93c.65,0,1.35,0,2.41.07h.67c.88,0,2,0,3.36,0,.89,0,1.3,0,1.52-.81a18.42,18.42,0,0,0,.31-2.65C372.23,392.88,372.23,392.41,371.78,392.41Z" transform="translate(-10 -58.91)"/>
  <path class="cls-1" d="M395.43,385.4l-.65-.49c-2-1.51-2.36-2.24-2.36-3.13,0-1.29,1-2.12,2.5-2.12a2.7,2.7,0,0,1,2.32,1,2.54,2.54,0,0,1,.54,1.36c0,.62.35.69.5.69.53,0,.53-.65.53-1a18.6,18.6,0,0,1,.07-2.4v-.39c0-.28-.18-.46-.53-.54a11.59,11.59,0,0,0-3.16-.4c-3.32,0-5.64,1.92-5.64,4.66,0,2.07,1.06,3.78,3.55,5.72l1.07.84c1.81,1.42,2.18,2.39,2.18,3.51a2.57,2.57,0,0,1-2.74,2.39h-.11a3,3,0,0,1-3.07-2.15,4.68,4.68,0,0,1-.2-1.11c0-.58-.32-.67-.5-.67-.49,0-.53.65-.55.86v.07c0,.44-.11,1.78-.11,3,0,.57.09.81.6,1a8.25,8.25,0,0,0,3.51.63,6.93,6.93,0,0,0,3.85-1,5,5,0,0,0,2.31-4.27C399.35,389.22,398.29,387.55,395.43,385.4Z" transform="translate(-10 -58.91)"/>
  <path class="cls-1" d="M61.53,408.54v16.15l-6.16-5.75L37.9,419c-7.4.45-12.65,5.06-12.65,15.52,0,10.25,5.59,15.56,15.15,15.56A29.81,29.81,0,0,0,49,449v-7.44l-12.24-6.87H63.47v21.1q-8.55,5.29-25.79,5.29Q10,461.1,10,434c0-17.38,10.48-25.49,31.42-25.49Z" transform="translate(-10 -58.91)"/>
  <g>
    <path class="cls-1" d="M185.17,408.54H149.93l10.3,9.51-.13,42h25.45q29,0,29-25.52Q214.5,408.54,185.17,408.54ZM183.9,449h-7.51V418.85h7.15q15,0,15,15.16Q198.52,449,183.9,449Z" transform="translate(-10 -58.91)"/>
    <polygon class="cls-1" points="319.89 361.5 326.26 349.63 274.24 349.63 274.24 364.53 277.94 361.5 292.64 361.5 292.64 397.22 289.97 400.46 264.56 349.63 241.43 349.63 247.38 355.34 226.33 399.23 222.65 395.72 222.65 354.09 227 349.63 202.69 349.63 207.23 354.17 207.23 395.77 202.49 401.1 225.44 401.1 228.29 401.1 260.89 401.1 260.89 386.02 255.13 390.49 245.2 390.49 257.02 365.17 270.3 395.72 265.36 401.1 289.43 401.1 290.29 401.1 311.03 401.1 308 397.4 308 361.5 319.89 361.5"/>
    <path class="cls-1" d="M360.52,406.52q-30,0-30,26.75,0,27.55,30.49,27.55,29.19,0,29.19-27Q390.25,406.52,360.52,406.52Zm.4,43.18q-14.17,0-14.17-16.54,0-15.52,13.52-15.52,13.81,0,13.81,16.21,0,15.85-13.16,15.85Z" transform="translate(-10 -58.91)"/>
    <path class="cls-1" d="M442.14,424.13q0-15.59-19.64-15.59H390.25l3,3.49v42.3l-5.47,5.75h24.85l-4.32-6.1v-12.3H415l9.72,14.52-3.17,3.88h22.85l-14-20.36Q442.14,436.87,442.14,424.13Zm-23.38,5.28H408.33V419.18h10.25c3-.11,7.59.07,7.85,3.51.37,4.9-2.43,6.72-7.68,6.72Z" transform="translate(-10 -58.91)"/>
    <path class="cls-1" d="M475.94,429.3c-10-3-14.7-4.94-14.7-7.12s1.4-3.3,5.21-3.3H483.3l5.28,4.14V408.59l-31,0a13,13,0,0,0-3.92,1.39c-5.42,3.09-8.32,6.85-8.32,12A15.35,15.35,0,0,0,449,432.14c3.14,3.13,7.92,5.31,14.46,7.36,7.85,2.35,11,3.91,11,6.14s-3,3-4.42,3.28h-16.3l-8-7.6v18.77H469c14.3,0,21.09-5,21.09-15.82C490,437.4,486.1,433,475.94,429.3Z" transform="translate(-10 -58.91)"/>
  </g>
  <path class="cls-2" d="M324,279c5.89,4.72,11.8,9.6,16.53,13.55q-1.84,1.83-3.74,3.59Z" transform="translate(-10 -58.91)"/>
  <g>
    <path class="cls-1" d="M163.27,85.6l13.08,2.08c1.45-.09,1-1.11,1-1.11V77a151.68,151.68,0,0,1,72.1-18.09c83.57,0,151.31,67.16,151.31,150a148.78,148.78,0,0,1-41,102.71l-9.48-9.81s-13.3-11.38-26.51-22L342,304.33s7.57,9.71,9.81,15a152.24,152.24,0,0,1-213.12-8.24v-15a2.27,2.27,0,0,0-.88-1.39L121.15,280a2.07,2.07,0,0,0-1.75,0l-2.55,1.16A149.22,149.22,0,0,1,163.27,85.6Z" transform="translate(-10 -58.91)"/>
    <g>
      <path class="cls-3" d="M193.95,90.44C251.55,63.85,318.24,82.73,355,132,318.52,86,251.1,70.19,196.27,95.49c-55.57,25.64-87.73,88.68-75.08,146.93C106.37,181.76,135.61,117.36,193.95,90.44Z" transform="translate(-10 -58.91)"/>
      <path class="cls-3" d="M379.81,198.23a133.56,133.56,0,0,1-35.9,98.18l-3.57-3C365.5,268.4,380.74,234,379.81,198.23Z" transform="translate(-10 -58.91)"/>
      <path class="cls-3" d="M278.61,328.56a133.3,133.3,0,0,0,58-31.53l2.9,3.88a130.71,130.71,0,0,1-59.53,33C218.39,349.3,156.4,318.3,129.49,263,156.74,315,220,343.17,278.61,328.56Z" transform="translate(-10 -58.91)"/>
    </g>
    <path class="cls-3" d="M357.78,155.87h-9.11c-11.36-5.08-24.28-6.42-24.28-6.42a7.38,7.38,0,0,1,.64-2.4,2.37,2.37,0,0,0-.21-2.61,37.77,37.77,0,0,0-20.62-8.22c-1.54-4.21-5.33-12.55-5.33-12.55a8,8,0,0,0-4.63-5.12c-8-4.93-26.56-9.31-32.11-10.48s-17.73-1.83-17.73-1.83c-10.3.06-23.76,0-23.76,0A48.07,48.07,0,0,1,196,100.9l.06,1.75a141.05,141.05,0,0,0,6.1,13.63c-20.16,32.21-.86,63.2-.86,63.2-30.61-31.72-9.82-57.94-9.82-57.94-22.41,7.47-37.8,35-37.8,35a19.26,19.26,0,0,1-2.85,4.37c-.52.59-7.06,7.15-7.06,7.15-4.25,5.64-15.89,9.41-15.89,9.41a23.84,23.84,0,0,0,18.87,6.87c-2.29,12.73-.64,27.11-.64,27.11,5.68,34,18.35,38.69,18.35,38.69l16.63,3.54c47,16.63,57.93,32.17,57.93,32.17-1.56-15.38-11-26.13-23.37-35.26a110.66,110.66,0,0,1-26.53-28.29s16.56,14.34,30.69,21.93c48.71,26.14,33.39,57.48,33.39,57.48-3.32,9.82-14,18-14,18,16.52,0,26.06-5.08,26.06-5.08,18.08-9.32,23.83-19,23.83-19-1.67-19.68-19.45-67-19.72-67.81-1.13-3.32-7.77-18.19-7.77-18.19,12.69-.89,17.57,2.31,17.57,2.31a22.29,22.29,0,0,1,.27,10,33.69,33.69,0,0,1-3.63,7.94,22.93,22.93,0,0,1,7.35,0c19.2,4.57,20.15,19.34,20.15,19.34-3.13,4.67-10.1,7.82-10.1,7.82a42.13,42.13,0,0,0,11,2.7l8.54-3.5c9-4.12,15.79-13.41,15.79-13.41a1.56,1.56,0,0,0,.34-1.47c-4.26-8.11,1.43-17.47,1.43-17.47l-.51-7.27-.53-.17a13,13,0,0,1-6.8,7.39c-2.49.77-6.32,0-6.32,0-8.81-2.68-11.2-5.55-11.2-5.55-3.45-8-2.39-11.2-2.39-11.2a41.26,41.26,0,0,1,21.84-23.12c2.16-.42,2.94.42,2.94.42,8.82,9.06,13.67,8,13.67,8,.42-.42.66,0,.66,0,.54,1.32-.36,7.74-.36,7.74,8.64-5.28,14.39-22.7,14.39-22.7.67-2.29,0-2.69,0-2.69-4-5.69-12.88-13.69-12.88-13.69a62.93,62.93,0,0,1,13.87,7.19C357.5,164.81,357.78,155.87,357.78,155.87ZM252.25,128.71s-8.49-6.26-22.48-6.88c0,0-1.83-.09-1.83,1.39,0,0-.45,9.21,1.52,16.62,0,0,0,1.21,2.41,2.59l11.26,8.22s1.43.63,2.06,5l7.89,36.77s-10.53-25.55-18.2-37.17c0,0-7.32-4.29-10.7-7.75a60.19,60.19,0,0,1-2.43-33.36s.11-.94,2.44-.63c0,0,5.68-1.47,27,10.06,0,0,16.09-.27,24.27,3.4C275.49,127,257.89,126.92,252.25,128.71Zm45.44,24.57,13.65-2.14s3.62-1.32,3.78,1.81l-.33,5.1,2.79,4.27Z" transform="translate(-10 -58.91)"/>
  </g>
</svg>
