<svg id="Layer_3" data-name="Layer 3" xmlns="http://www.w3.org/2000/svg" width="449.71" height="480" viewBox="0 0 449.71 480">
  <defs>
    <style>
      .cls-1 {
        fill: #0f57ea;
      }

      .cls-2 {
        fill: #ff1c26;
      }

      .cls-3 {
        fill: #fff;
      }
    </style>
  </defs>
  <title>Team_Logos_Text_NYXL</title>
  <polygon class="cls-1" points="46.76 190.38 0 143.62 0 237.14 46.76 190.38"/>
  <polygon class="cls-1" points="97.84 190.38 0 288.21 0 312.98 25.86 312.98 148.46 190.38 25.86 67.78 0 67.78 0 92.54 97.84 190.38"/>
  <polygon class="cls-1" points="199.54 190.38 76.94 312.98 127.57 312.98 224.85 215.69 322.14 312.98 372.76 312.98 250.17 190.38 372.76 67.78 322.14 67.78 224.85 165.06 127.57 67.78 76.94 67.78 199.54 190.38"/>
  <polygon class="cls-1" points="449.71 237.14 449.71 143.62 402.95 190.38 449.71 237.14"/>
  <polygon class="cls-1" points="423.84 312.98 449.71 312.98 449.71 288.21 351.87 190.38 449.71 92.54 449.71 67.78 423.84 67.78 301.25 190.38 423.84 312.98"/>
  <polygon class="cls-1" points="271.06 67.78 178.65 67.78 224.85 113.99 271.06 67.78"/>
  <polygon class="cls-1" points="178.65 312.98 271.06 312.98 224.85 266.77 178.65 312.98"/>
  <path class="cls-2" d="M121.88,51.92h-8.2l-4.41-20.39V51.92h-7.58V10.31h8.2l4.41,21.42V10.31h7.58Z" transform="translate(-25.09 -10.05)"/>
  <path class="cls-2" d="M155.09,51.92h-14V10.31h14v6.76h-5.18v8.61h5.18v6.76h-5.18V45.16h5.18Z" transform="translate(-25.09 -10.05)"/>
  <path class="cls-2" d="M207.48,10.31l-5.23,41.61h-9.33l-2.1-25-2.1,25h-9.33l-5.23-41.61h8.3l2,26.19,2.36-26.19h8l2.36,26.19,2-26.19Z" transform="translate(-25.09 -10.05)"/>
  <path class="cls-2" d="M279.37,10.31l-5.79,25.11v16.5h-9.33V35.42l-5.79-25.11h8.3l2.15,16,2.15-16Z" transform="translate(-25.09 -10.05)"/>
  <path class="cls-2" d="M318.08,44.13q0,5.07-1.69,6.46-1.85,1.54-8.4,1.54t-8.3-1.49q-1.79-1.49-1.79-6.51V18q0-5,1.79-6.51t8.3-1.49q6.56,0,8.4,1.54Q318.08,13,318.08,18Zm-8.81-.1V18.15q0-1.33-1.28-1.33t-1.28,1.33V44q0,1.33,1.28,1.33T309.27,44Z" transform="translate(-25.09 -10.05)"/>
  <path class="cls-2" d="M357.48,51.92h-8.81V37q0-1.69-1.38-1.69H346.1V51.92h-8.81V10.31h10.86q5.64,0,7.38,1.43,1.95,1.54,1.95,6.56v7.28q0,5.38-3.95,6,3.95,1.13,3.95,6.3ZM348.66,26.3V18.77q0-1.69-1.38-1.69H346.1V27.73h1.18Q348.66,27.73,348.66,26.3Z" transform="translate(-25.09 -10.05)"/>
  <path class="cls-2" d="M398.19,51.92h-8.87L385.07,32V51.92h-8.4V10.31h8.4V27.07l3.33-16.76h8.71L392.55,29Z" transform="translate(-25.09 -10.05)"/>
  <path class="cls-3" d="M283.33,369a9.31,9.31,0,0,1,9.31-9.31h29.8a9.31,9.31,0,0,1,9.31,9.31v33.74H311.27V380.16a1.87,1.87,0,0,0-1.86-1.86h-3.72a1.87,1.87,0,0,0-1.86,1.86v18.22c0,1.83-.15,2.48,1,4L329,433.65c1.3,1.86,2.79,3.72,2.79,7.45v39.62a9.31,9.31,0,0,1-9.31,9.31h-29.8a9.31,9.31,0,0,1-9.31-9.31V443.48h20.48v26.07a1.87,1.87,0,0,0,1.86,1.86h3.72a1.87,1.87,0,0,0,1.86-1.86V446.74a5.34,5.34,0,0,0-1.11-3.26s-23-29.79-24.61-32c-1.76-2.44-2.21-3.38-2.21-5.78Z" transform="translate(-25.09 -10.05)"/>
  <path class="cls-3" d="M157.63,406.23V380.16a1.87,1.87,0,0,0-1.86-1.86H152a1.87,1.87,0,0,0-1.86,1.86v89.39a1.87,1.87,0,0,0,1.86,1.86h3.72a1.87,1.87,0,0,0,1.86-1.86V443.48h20.48v37.25a9.31,9.31,0,0,1-9.31,9.31H139a9.31,9.31,0,0,1-9.31-9.31V369a9.31,9.31,0,0,1,9.31-9.31h29.8a9.31,9.31,0,0,1,9.31,9.31v37.25Z" transform="translate(-25.09 -10.05)"/>
  <polygon class="cls-3" points="199.09 401.76 199.09 420.39 180.43 420.39 180.43 461.36 202.82 461.36 202.82 479.98 159.94 479.98 159.94 349.62 202.82 349.62 202.82 368.25 180.43 368.25 180.43 401.76 199.09 401.76"/>
  <polygon class="cls-3" points="39.15 401.76 39.15 420.39 20.49 420.39 20.49 461.36 42.88 461.36 42.88 479.98 0 479.98 0 349.62 42.88 349.62 42.88 368.25 20.49 368.25 20.49 401.76 39.15 401.76"/>
  <path class="cls-3" d="M396.86,380.16A2,2,0,0,0,395,378.3h-3.72a2,2,0,0,0-1.86,1.86v89.39a2,2,0,0,0,1.86,1.86H395a2,2,0,0,0,1.86-1.86ZM408,359.68c5.59,0,9.31,3.72,9.31,9.31V480.73c0,5.59-3.72,9.31-9.31,9.31h-29.8c-5.59,0-9.31-3.72-9.31-9.31V369c0-5.59,3.72-9.31,9.31-9.31Z" transform="translate(-25.09 -10.05)"/>
  <rect class="cls-3" x="314.75" y="349.62" width="20.48" height="130.36"/>
  <path class="cls-3" d="M453.88,380.16A1.87,1.87,0,0,0,452,378.3h-5.59v35.38H452a1.87,1.87,0,0,0,1.86-1.86Zm20.49,52.14V490H453.88V434.17a1.87,1.87,0,0,0-1.86-1.86h-5.59V490H425.94V359.68h39.11a9.31,9.31,0,0,1,9.31,9.31v43.76c0,5.59-3.72,9.31-9.31,9.31V423c5.59,0,9.31,3.72,9.31,9.31" transform="translate(-25.09 -10.05)"/>
  <polygon class="cls-3" points="230.22 458.5 230.22 349.62 209.73 349.62 209.73 479.98 219.21 479.98 230.22 458.5"/>
  <polygon class="cls-3" points="231.68 461.36 222.14 479.98 252.61 479.98 252.61 461.36 231.68 461.36"/>
  <path class="cls-3" d="M102.3,393.74v-34h20.48v38.54a3.73,3.73,0,0,1-.34,1.57L94.85,452.25v37.8H74.36v-40.9a3.73,3.73,0,0,1,.34-1.57Z" transform="translate(-25.09 -10.05)"/>
  <path class="cls-3" d="M111.69,426.62l-11.44,21.75,2,3.89v37.8h20.49v-40.9a3.72,3.72,0,0,0-.35-1.57Z" transform="translate(-25.09 -10.05)"/>
  <path class="cls-3" d="M85.42,420.16,96.9,397.75l-2.05-4v-34H74.36v38.54a3.72,3.72,0,0,0,.35,1.57Z" transform="translate(-25.09 -10.05)"/>
</svg>
