<svg id="Layer_1" data-name="Layer 1" xmlns="http://www.w3.org/2000/svg" width="473.7" height="480" viewBox="0 0 473.7 480">
  <defs>
    <style>
      .cls-1 {
        fill: #ffaa1d;
      }

      .cls-2 {
        fill: #fff;
      }

      .cls-3 {
        fill: #8d042d;
      }
    </style>
  </defs>
  <title>Team_Logos_Text_Paris</title>
  <g>
    <g>
      <g>
        <path class="cls-1" d="M69.74,441.9,68,428.21H29.2l-16,0v41.67h0A19.89,19.89,0,0,0,33,489.74l34.92,0,1.78-13.64H35.42a6.21,6.21,0,0,1-6.22-6.14v-4.88H65.59V452.6H29.2V441.9Z" transform="translate(-13.15 -10)"/>
        <polygon class="cls-1" points="64.71 431.93 89.28 431.93 89.28 479.64 104.63 479.64 104.63 431.93 126.96 431.93 129.14 418.21 64.71 418.21 64.71 431.93"/>
        <path class="cls-1" d="M397.52,428.21H382.06l.06.13L353.66,490H369l5.82-12.6h29.94l5.82,12.6h15.35l-28.46-61.64Zm1.9,37.61H380.16L389.79,445Z" transform="translate(-13.15 -10)"/>
        <path class="cls-1" d="M276.84,451.16c0-12.3-10-23-22.25-23H215.42v13.72h35.85a9.29,9.29,0,0,1,9.62,9.23,9.62,9.62,0,0,1-9.62,9.62H230.76V452.6H215.42v37.16h15.34V473.69l18.14-.21,9.7,16.27H277l-11.47-19.24A22.24,22.24,0,0,0,276.84,451.16Z" transform="translate(-13.15 -10)"/>
        <polygon class="cls-1" points="317.14 454.87 287.51 418.21 272.13 418.21 272.13 479.64 287.48 479.64 287.48 443.47 317.14 479.64 332.49 479.64 332.49 418.21 317.14 418.21 317.14 454.87"/>
        <polygon class="cls-1" points="436.17 466.11 436.17 418.21 420.59 418.21 420.59 480 473.7 480 473.7 466.11 436.17 466.11"/>
        <path class="cls-1" d="M207.29,441.9l-1.78-13.64-54.85-.05v42.56h.08a19.87,19.87,0,0,0,19.85,19l34.92,0,1.78-13.64H173a6.22,6.22,0,0,1-6.22-6.14v-4.88h36.4V452.6h-36.4V441.93Z" transform="translate(-13.15 -10)"/>
      </g>
      <path class="cls-2" d="M118.83,404.47v9.85h-3.66V390.07h4.15a18.83,18.83,0,0,1,4.6.42,6.22,6.22,0,0,1,2.77,1.6,6.93,6.93,0,0,1,2.09,5.16,6.65,6.65,0,0,1-2.23,5.28,8.89,8.89,0,0,1-6,1.94Zm0-3.39h1.37q5,0,5-3.88t-5.2-3.75h-1.21Z" transform="translate(-13.15 -10)"/>
      <path class="cls-2" d="M195.22,408.43H184.83l-2.7,5.89h-3.94l12-24.49,11.58,24.49h-4Zm-1.5-3.44-3.59-8.25L186.36,405Z" transform="translate(-13.15 -10)"/>
      <path class="cls-2" d="M259.6,404l7.51,10.33h-4.48l-6.93-9.92H255v9.92h-3.66V390.07h4.29c3.21,0,5.52.6,7,1.8a6.66,6.66,0,0,1,2.35,5.31,6.9,6.9,0,0,1-1.47,4.43A6.63,6.63,0,0,1,259.6,404ZM255,401.21h1.17c3.46,0,5.2-1.33,5.2-4q0-3.72-5.06-3.72H255Z" transform="translate(-13.15 -10)"/>
      <path class="cls-2" d="M320.14,390.07v24.25h-3.66V390.07Z" transform="translate(-13.15 -10)"/>
      <path class="cls-2" d="M383.68,393.68l-3,1.76a5.05,5.05,0,0,0-1.58-1.88,3.68,3.68,0,0,0-2-.51,3.72,3.72,0,0,0-2.53.87,2.65,2.65,0,0,0-1,2.13c0,1.19.88,2.14,2.63,2.86l2.42,1a10.33,10.33,0,0,1,4.32,2.92,6.49,6.49,0,0,1,1.37,4.21,7.41,7.41,0,0,1-2.23,5.54,7.69,7.69,0,0,1-5.58,2.19,7.44,7.44,0,0,1-5.21-1.87,8.57,8.57,0,0,1-2.53-5.26l3.71-.82a6.24,6.24,0,0,0,.88,3,4.17,4.17,0,0,0,6.14.42,4,4,0,0,0,1.13-2.9,4.08,4.08,0,0,0-.2-1.3,3.23,3.23,0,0,0-.61-1.08,5,5,0,0,0-1.08-.93,10.8,10.8,0,0,0-1.57-.83l-2.34-1c-3.32-1.4-5-3.46-5-6.16a5.86,5.86,0,0,1,2.09-4.57,7.53,7.53,0,0,1,5.2-1.85Q381.33,389.6,383.68,393.68Z" transform="translate(-13.15 -10)"/>
    </g>
    <g>
      <path class="cls-3" d="M278.38,200.05a50.69,50.69,0,1,0,68.71-64.23,48.39,48.39,0,1,1-68.71,64.23Z" transform="translate(-13.15 -10)"/>
      <path class="cls-3" d="M321.39,207.32a39.85,39.85,0,0,1-32.48-9.83,39.76,39.76,0,1,0,59.61-52.34,39.93,39.93,0,0,1-27.13,62.17Z" transform="translate(-13.15 -10)"/>
      <g>
        <path class="cls-3" d="M389.52,141.31c-17.74-27.09-57.08-37.07-69.89-40.91s-19-8.45-22.91-15.15S294.43,68,300.63,59.46C292.07,65.71,288.14,71,286.33,76a1.07,1.07,0,0,0-.07.2,24.22,24.22,0,0,0-1.17,5.1,45.3,45.3,0,0,0,5.12,28.33c7.49,14,23.66,23.46,34.4,30.09s16.77,20.92,11.4,33.05-19.37,17.55-31.49,16.11-31.79-14.54-37.28-22.73c0,0,16.27,29.55,43,29.55,21.79,0,36.11-13.26,36.11-31.48s-7-26.24-29.82-39.49a50.81,50.81,0,0,1-17.49-15.8,75.25,75.25,0,0,0,22.45,11.12c36.18,9.08,52.74,29,58,40.42s11.07,37.07-11,63.21c-32.48,34.39-71.75,14.74-84.89,2.64-11-10.09-22.75-32.32-31-56.81-1.14-3.95-25.47-67.31-82.78-61.95S96.4,158.8,97.56,184.14c2.86,62.72,56.39,74.72,75.6,73.68,15.53-.84,25.41-7.07,25.41-7.07s-5.92,1.11-9.83.67c-17.54-1.6-31.11-18.31-31.11-33.86a34.54,34.54,0,0,1,59.41-24,38.73,38.73,0,1,0-51.63,56.17c-37.09-9.26-50-32.73-53.12-57.91-2.72-21.84,13.15-61.43,55.12-66.09,39.71-4.41,61.45,34,66.67,47,0,0,13.62,35.3,21.74,83s14.7,110,14.7,110l19.69-77.46S272.71,275,268,241.83c23.94,39.8,83,32.57,110.34,3.39C408.72,212.77,407.26,168.4,389.52,141.31Z" transform="translate(-13.15 -10)"/>
        <path class="cls-3" d="M173.26,134.65a52.88,52.88,0,0,0-46.14,78.73,54.63,54.63,0,0,1,92.77-50.81A52.87,52.87,0,0,0,173.26,134.65Z" transform="translate(-13.15 -10)"/>
        <path class="cls-3" d="M184.5,164.45a44.14,44.14,0,0,1,32.26,14,42.88,42.88,0,1,0-75.21,41.2,44.31,44.31,0,0,1,42.95-55.16Z" transform="translate(-13.15 -10)"/>
      </g>
      <path class="cls-3" d="M339.76,54.37c20-.1,16.82,7,16.82,7,6.52-1,10.6-3.44,9.71-9-.78-4.87-5.65-7.39-10.87-7-.58-4.49,5.51-9.72,5.51-9.72s-8.75-3.24-15.42,2.85c-1.16-5.37,1.06-10.67,3.82-12.85-3-2.59-11.36-1.69-16.14,5.13-3.61-4.6-2.86-10.49,1.49-15.28C328.44,14.35,318.3,20,315.83,28c-3.83-3.93-5.95-12.18-2.18-18-8.22,4.36-15.95,10.61-15.95,24.57C297.7,54.44,322.68,54.45,339.76,54.37Z" transform="translate(-13.15 -10)"/>
      <path class="cls-3" d="M356.06,69.66s-7.39,0-7.84,12c-.46,12.58,4.16,22.09,14.65,21.28,9.64-.75,11.41-12.16,5.08-18.27-5.39-5.2-12.48-6.64-13.05-10.31S356.06,69.66,356.06,69.66Z" transform="translate(-13.15 -10)"/>
    </g>
  </g>
</svg>
