<svg id="Layer_1" data-name="Layer 1" xmlns="http://www.w3.org/2000/svg" width="480" height="189.69" viewBox="0 0 480 189.69">
  <defs>
    <style>
      .cls-1 {
        fill: #f95300;
      }

      .cls-2 {
        fill: #fff;
      }

      .cls-3 {
        fill: #d6c152;
      }

      .cls-4 {
        fill: #fc4c02;
      }
    </style>
  </defs>
  <title>Team_Logos_Text_SFS</title>
  <g>
    <path class="cls-1" d="M246.65,274.15" transform="translate(-10 -155.15)"/>
    <path class="cls-2" d="M49.87,166.23v.46c0,1.47.42,2.41,2.08,2.41a1.81,1.81,0,0,0,1.89-1.93c0-1.43-.73-1.95-2.81-2.68-2.81-1-4.1-2.12-4.1-4.73,0-3,1.86-4.61,4.85-4.61,2.8,0,4.84,1.21,4.84,4.21v.44h-3c0-1.47-.51-2.32-1.71-2.32a1.62,1.62,0,0,0-1.8,1.82c0,1,.28,1.55,1.62,2.12l2.43,1.06c2.37,1,3,2.23,3,4.14,0,3.31-2,4.8-5.44,4.8-3.58,0-5-1.66-5-4.56v-.63Z" transform="translate(-10 -155.15)"/>
    <path class="cls-2" d="M81.64,155.46h3.9l4.14,15.66H86.4l-.73-3.32H81.51l-.73,3.32H77.49Zm.41,9.76h3.07l-1.51-7h0Z" transform="translate(-10 -155.15)"/>
    <path class="cls-2" d="M114.3,155.46l3.82,10.72h0V155.46h2.9v15.66h-3.6l-3.86-11h0v11h-2.89V155.46Z" transform="translate(-10 -155.15)"/>
    <path class="cls-2" d="M174.46,155.46h8.75v2.59h-5.59v3.68h5.26v2.59h-5.26v6.8h-3.16Z" transform="translate(-10 -155.15)"/>
    <path class="cls-2" d="M204.5,155.46h5.83c2.59,0,4.17,1.36,4.17,4,0,2.09-.84,3.49-2.61,3.86v.05c2.14.28,2.47,1.47,2.52,4.78,0,1.64.11,2.5.7,2.8v.14h-3.42a3.13,3.13,0,0,1-.4-1.65l-.08-3c-.05-1.23-.6-2-1.87-2h-1.69v6.63H204.5Zm3.15,6.84H209a2.06,2.06,0,0,0,2.37-2.35,2,2,0,0,0-2.19-2.17h-1.5Z" transform="translate(-10 -155.15)"/>
    <path class="cls-2" d="M239.62,155.46h3.9l4.15,15.66h-3.29l-.73-3.32h-4.16l-.72,3.32h-3.29Zm.42,9.76h3.07l-1.52-7h0Z" transform="translate(-10 -155.15)"/>
    <path class="cls-2" d="M272.29,155.46l3.81,10.72h0V155.46H279v15.66h-3.59l-3.86-11h0v11h-2.89V155.46Z" transform="translate(-10 -155.15)"/>
    <path class="cls-2" d="M307.81,160.74c0-2.28-.46-3.26-1.89-3.26-1.6,0-2,1.6-2,6,0,4.73.65,5.59,2,5.59,1.14,0,2-.59,2-4h3.16c0,3.38-.84,6.29-5,6.29-4.74,0-5.33-3.37-5.33-8.13s.59-8.14,5.33-8.14c4.51,0,4.84,3.31,4.84,5.59Z" transform="translate(-10 -155.15)"/>
    <path class="cls-2" d="M332.93,171.12V155.46h3.16v15.66Z" transform="translate(-10 -155.15)"/>
    <path class="cls-2" d="M360.86,166.23v.46c0,1.47.42,2.41,2.09,2.41a1.81,1.81,0,0,0,1.88-1.93c0-1.43-.72-1.95-2.81-2.68-2.8-1-4.1-2.12-4.1-4.73,0-3,1.87-4.61,4.85-4.61,2.81,0,4.85,1.21,4.85,4.21v.44h-3c0-1.47-.5-2.32-1.71-2.32a1.62,1.62,0,0,0-1.8,1.82c0,1,.29,1.55,1.62,2.12l2.44,1.06c2.37,1,3,2.23,3,4.14,0,3.31-2,4.8-5.44,4.8s-5-1.66-5-4.56v-.63Z" transform="translate(-10 -155.15)"/>
    <path class="cls-2" d="M396.27,160.74c0-2.28-.46-3.26-1.88-3.26-1.61,0-2,1.6-2,6,0,4.73.66,5.59,2,5.59,1.14,0,2-.59,2-4h3.16c0,3.38-.83,6.29-5,6.29-4.73,0-5.33-3.37-5.33-8.13s.6-8.14,5.33-8.14c4.52,0,4.85,3.31,4.85,5.59Z" transform="translate(-10 -155.15)"/>
    <path class="cls-2" d="M426.24,155.15c4.74,0,5.33,3.38,5.33,8.14s-.59,8.13-5.33,8.13-5.33-3.37-5.33-8.13S421.51,155.15,426.24,155.15Zm0,13.95c1.87,0,2.17-1.6,2.17-5.81s-.3-5.81-2.17-5.81-2.17,1.62-2.17,5.81S424.38,169.1,426.24,169.1Z" transform="translate(-10 -155.15)"/>
    <polygon class="cls-3" points="80.05 142.13 80.05 150.96 80.05 159.64 81.79 166.25 83.52 159.64 83.52 150.96 83.52 142.13 81.79 135.53 80.05 142.13"/>
    <polygon class="cls-3" points="71.96 143.79 71.96 150.96 71.96 157.98 73.69 163.34 75.43 157.98 75.43 150.96 75.43 143.79 73.69 138.43 71.96 143.79"/>
    <polygon class="cls-3" points="88.73 142.86 88.73 150.96 88.73 158.91 90.46 170.45 92.19 158.91 92.19 150.96 92.19 142.86 90.46 131.32 88.73 142.86"/>
    <polygon class="cls-3" points="97.98 140.47 97.98 150.96 97.98 161.31 99.71 171.66 101.45 161.31 101.45 150.96 101.45 140.47 99.71 130.12 97.98 140.47"/>
    <polygon class="cls-3" points="106.65 137.54 106.65 150.96 106.65 164.24 108.38 173.97 110.12 164.24 110.12 150.96 110.12 137.54 108.38 127.8 106.65 137.54"/>
    <polygon class="cls-3" points="115.32 134.77 115.32 150.96 115.32 167.01 117.06 176.59 118.79 167.01 118.79 150.96 118.79 134.77 117.06 125.19 115.32 134.77"/>
    <polygon class="cls-3" points="123.99 123.63 123.99 150.96 123.99 178.15 125.73 189.69 127.46 178.15 127.46 150.96 127.46 123.63 125.73 112.08 123.99 123.63"/>
    <polygon class="cls-3" points="177.18 142.13 177.18 150.96 177.18 159.64 178.92 166.25 180.65 159.64 180.65 150.96 180.65 142.13 178.92 135.53 177.18 142.13"/>
    <polygon class="cls-3" points="185.28 143.79 185.28 150.96 185.28 157.98 187.01 163.34 188.75 157.98 188.75 150.96 188.75 143.79 187.01 138.43 185.28 143.79"/>
    <polygon class="cls-3" points="168.51 142.86 168.51 150.96 168.51 158.91 170.25 170.45 171.98 158.91 171.98 150.96 171.98 142.86 170.25 131.32 168.51 142.86"/>
    <polygon class="cls-3" points="159.26 140.47 159.26 150.96 159.26 161.31 161 171.66 162.73 161.31 162.73 150.96 162.73 140.47 161 130.12 159.26 140.47"/>
    <polygon class="cls-3" points="150.59 137.54 150.59 150.96 150.59 164.24 152.32 173.97 154.06 164.24 154.06 150.96 154.06 137.54 152.32 127.8 150.59 137.54"/>
    <polygon class="cls-3" points="141.92 134.77 141.92 150.96 141.92 167.01 143.65 176.59 145.38 167.01 145.38 150.96 145.38 134.77 143.65 125.19 141.92 134.77"/>
    <polygon class="cls-3" points="133.24 123.63 133.24 150.96 133.24 178.15 134.98 189.69 136.71 178.15 136.71 150.96 136.71 123.63 134.98 112.08 133.24 123.63"/>
    <polygon class="cls-3" points="193.37 144.96 193.37 150.96 193.37 156.81 195.11 161.27 196.84 156.81 196.84 150.96 196.84 144.96 195.11 140.5 193.37 144.96"/>
    <polygon class="cls-3" points="202.04 145.46 202.04 150.96 202.04 156.31 203.78 164.12 205.51 156.31 205.51 150.96 205.51 145.46 203.78 137.65 202.04 145.46"/>
    <polygon class="cls-3" points="211.29 143.84 211.29 150.96 211.29 157.93 213.03 164.93 214.76 157.93 214.76 150.96 214.76 143.84 213.03 136.84 211.29 143.84"/>
    <polygon class="cls-3" points="219.97 141.86 219.97 150.96 219.97 159.91 221.7 166.5 223.44 159.91 223.44 150.96 223.44 141.86 221.7 135.27 219.97 141.86"/>
    <polygon class="cls-3" points="228.64 139.98 228.64 150.96 228.64 161.79 230.37 168.27 232.11 161.79 232.11 150.96 232.11 139.98 230.37 133.5 228.64 139.98"/>
    <polygon class="cls-3" points="237.31 132.45 237.31 150.96 237.31 169.32 239.05 177.13 240.78 169.32 240.78 150.96 240.78 132.45 239.05 124.64 237.31 132.45"/>
    <polygon class="cls-3" points="290.5 144.96 290.5 150.96 290.5 156.81 292.24 161.27 293.97 156.81 293.97 150.96 293.97 144.96 292.24 140.5 290.5 144.96"/>
    <polygon class="cls-3" points="281.83 145.46 281.83 150.96 281.83 156.31 283.56 164.12 285.3 156.31 285.3 150.96 285.3 145.46 283.56 137.65 281.83 145.46"/>
    <polygon class="cls-3" points="272.58 143.84 272.58 150.96 272.58 157.93 274.31 164.93 276.05 157.93 276.05 150.96 276.05 143.84 274.31 136.84 272.58 143.84"/>
    <polygon class="cls-3" points="263.91 141.86 263.91 150.96 263.91 159.91 265.64 166.5 267.38 159.91 267.38 150.96 267.38 141.86 265.64 135.27 263.91 141.86"/>
    <polygon class="cls-3" points="255.24 139.98 255.24 150.96 255.24 161.79 256.97 168.27 258.7 161.79 258.7 150.96 258.7 139.98 256.97 133.5 255.24 139.98"/>
    <polygon class="cls-3" points="246.56 132.45 246.56 150.96 246.56 169.32 248.3 177.13 250.03 169.32 250.03 150.96 250.03 132.45 248.3 124.64 246.56 132.45"/>
    <polygon class="cls-3" points="299.75 146.88 299.75 150.96 299.75 154.89 301.49 157.91 303.22 154.89 303.22 150.96 303.22 146.88 301.49 143.86 299.75 146.88"/>
    <polygon class="cls-3" points="308.43 147.22 308.43 150.96 308.43 154.56 310.16 159.84 311.89 154.56 311.89 150.96 311.89 147.22 310.16 141.94 308.43 147.22"/>
    <polygon class="cls-3" points="317.68 146.12 317.68 150.96 317.68 155.65 319.41 160.39 321.14 155.65 321.14 150.96 321.14 146.12 319.41 141.38 317.68 146.12"/>
    <polygon class="cls-3" points="326.35 144.78 326.35 150.96 326.35 156.99 328.08 161.45 329.82 156.99 329.82 150.96 329.82 144.78 328.08 140.32 326.35 144.78"/>
    <polygon class="cls-3" points="335.02 143.51 335.02 150.96 335.02 158.26 336.75 162.64 338.49 158.26 338.49 150.96 338.49 143.51 336.75 139.13 335.02 143.51"/>
    <polygon class="cls-3" points="343.69 138.42 343.69 150.96 343.69 163.36 345.43 168.64 347.16 163.36 347.16 150.96 347.16 138.42 345.43 133.13 343.69 138.42"/>
    <polygon class="cls-3" points="396.88 146.88 396.88 150.96 396.88 154.89 398.62 157.91 400.35 154.89 400.35 150.96 400.35 146.88 398.62 143.86 396.88 146.88"/>
    <polygon class="cls-3" points="388.21 147.22 388.21 150.96 388.21 154.56 389.94 159.84 391.68 154.56 391.68 150.96 391.68 147.22 389.94 141.94 388.21 147.22"/>
    <polygon class="cls-3" points="378.96 146.12 378.96 150.96 378.96 155.65 380.69 160.39 382.43 155.65 382.43 150.96 382.43 146.12 380.69 141.38 378.96 146.12"/>
    <polygon class="cls-3" points="370.29 144.78 370.29 150.96 370.29 156.99 372.02 161.45 373.76 156.99 373.76 150.96 373.76 144.78 372.02 140.32 370.29 144.78"/>
    <polygon class="cls-3" points="361.62 143.51 361.62 150.96 361.62 158.26 363.35 162.64 365.08 158.26 365.08 150.96 365.08 143.51 363.35 139.13 361.62 143.51"/>
    <polygon class="cls-3" points="352.94 138.42 352.94 150.96 352.94 163.36 354.68 168.64 356.41 163.36 356.41 150.96 356.41 138.42 354.68 133.13 352.94 138.42"/>
    <polygon class="cls-3" points="36.69 146.88 36.69 150.96 36.69 154.89 38.43 157.91 40.16 154.89 40.16 150.96 40.16 146.88 38.43 143.86 36.69 146.88"/>
    <polygon class="cls-3" points="45.37 147.22 45.37 150.96 45.37 154.56 47.1 159.84 48.83 154.56 48.83 150.96 48.83 147.22 47.1 141.94 45.37 147.22"/>
    <polygon class="cls-3" points="54.62 146.12 54.62 150.96 54.62 155.65 56.35 160.39 58.08 155.65 58.08 150.96 58.08 146.12 56.35 141.38 54.62 146.12"/>
    <polygon class="cls-3" points="63.29 144.78 63.29 150.96 63.29 156.99 65.02 161.45 66.76 156.99 66.76 150.96 66.76 144.78 65.02 140.32 63.29 144.78"/>
    <polygon class="cls-3" points="421.52 149.8 404.4 149.8 404.4 152.11 421.52 152.11 432.15 150.96 421.52 149.8"/>
    <polygon class="cls-3" points="2.58 150.96 13.21 152.11 30.33 152.11 30.33 149.8 13.21 149.8 2.58 150.96"/>
    <path class="cls-4" d="M156.48,215.42H124.29v-30.5H96.62v87h28.24V237.44h31.62v34.45h27.67v-87H156.48Z" transform="translate(-10 -155.15)"/>
    <path class="cls-4" d="M490,306.34c-10.09-14.12-44.36-63.56-54.47-78,10.12-14.51,20.22-28.68,30.32-43.37H432.08c-10.08,14.69-20.35,28.81-29.95,43.16V184.92H374.46v87h27.67V228.67c10.16,14.78,44,63.55,54.1,77.67Z" transform="translate(-10 -155.15)"/>
    <path class="cls-4" d="M262.21,184.92H211.13a22.46,22.46,0,0,0-22.46,22.46v42.05a22.46,22.46,0,0,0,22.46,22.46h51.08a22.47,22.47,0,0,0,22.46-22.46V207.38A22.47,22.47,0,0,0,262.21,184.92Zm-4.08,56.59a7.23,7.23,0,0,1-7.23,7.23H220.17a7.23,7.23,0,0,1-7.22-7.23V214.74a7.23,7.23,0,0,1,7.22-7.23H250.9a7.23,7.23,0,0,1,7.23,7.23Z" transform="translate(-10 -155.15)"/>
    <path class="cls-4" d="M288.62,207.21V249.7a22,22,0,0,0,22.19,22.19H370.5V249.3H320.85a7.38,7.38,0,0,1-7.38-7.25V214.86a7.47,7.47,0,0,1,7.38-7.35H370.5V184.92H310.81A22.09,22.09,0,0,0,288.62,207.21Z" transform="translate(-10 -155.15)"/>
    <path class="cls-4" d="M28,184.9c-8.06.29-14.34,5.38-16.54,13.6a41.92,41.92,0,0,0-.36,20.34c1.83,7.92,6.42,13.1,14.55,15.21l36.46,10.77h0a3.06,3.06,0,0,1,1.2,2.51A3,3,0,0,1,62,249.92a1.67,1.67,0,0,1-1,.32H11.63v21.64c26,0,62.24,0,62.24,0,9.16,0,15.3-5.18,16.89-13a70.8,70.8,0,0,0,1.14-15.65c-.31-13.41-5.81-18-18.11-21.41-10.33-2.86-20.7-5.59-31-8.44A10.47,10.47,0,0,1,39,211.77a3,3,0,0,1-1.26-2.55,2.69,2.69,0,0,1,2.41-2.9h52v-21.4Z" transform="translate(-10 -155.15)"/>
  </g>
</svg>
