<svg id="Layer_3" data-name="Layer 3" xmlns="http://www.w3.org/2000/svg" width="480" height="418.58" viewBox="0 0 480 418.58">
  <defs>
    <style>
      .cls-1 {
        fill: #fff;
      }

      .cls-2 {
        fill: #fce300;
      }
    </style>
  </defs>
  <title>Team_Logos_Text_Shanghai</title>
  <g>
    <g>
      <polygon class="cls-1" points="114.57 287.05 111.79 289.82 111.79 296.5 119.86 300.8 119.86 303.27 119.06 304.1 116.41 304.09 115.67 303.33 115.66 301.56 111.46 301.57 111.46 305.12 114.22 307.88 121.25 307.88 124.06 305.06 124.06 298.49 116 294.19 116 291.62 116.79 290.82 119.45 290.82 120.18 291.56 120.18 293.31 124.38 293.31 124.38 289.83 121.61 287.05 114.57 287.05"/>
      <polygon class="cls-1" points="156.65 287.05 156.66 295.62 152.63 295.62 152.62 287.05 148.41 287.05 148.41 307.88 152.62 307.88 152.63 299.8 156.66 299.8 156.65 307.88 160.91 307.88 160.89 287.05 156.65 287.05"/>
      <path class="cls-1" d="M197.76,328.21,194,349H198l.74-4.45h3.1l.61,4.45h4.08l-3.76-20.84Zm1.6,12.61.93-5.93.94,5.93Z" transform="translate(-9.93 -41.17)"/>
      <polygon class="cls-1" points="227.96 296.88 222.96 287.05 219.37 287.05 219.37 307.88 223.28 307.88 223.26 297.07 228.47 307.88 231.84 307.88 231.84 287.05 227.96 287.05 227.96 296.88"/>
      <polygon class="cls-1" points="258.88 287.05 256.11 289.82 256.11 305.11 258.88 307.88 265.93 307.88 268.72 305.12 268.72 297.13 262.73 297.13 262.73 300.88 264.5 300.88 264.5 303.33 263.74 304.1 261.06 304.1 260.32 303.35 260.32 291.62 261.12 290.82 263.79 290.82 264.5 291.58 264.5 293.55 268.72 293.55 268.72 289.82 265.93 287.05 258.88 287.05"/>
      <polygon class="cls-1" points="301.3 287.05 301.31 295.62 297.27 295.62 297.27 287.05 293.06 287.05 293.06 307.88 297.27 307.88 297.27 299.8 301.31 299.8 301.3 307.88 305.56 307.88 305.54 287.05 301.3 287.05"/>
      <path class="cls-1" d="M342.41,328.21,338.61,349h4.05l.74-4.45h3.1l.61,4.45h4.08l-3.76-20.84Zm1.6,12.61.93-5.93.94,5.93Z" transform="translate(-9.93 -41.17)"/>
      <rect class="cls-1" x="364.02" y="287.04" width="4.2" height="20.84"/>
    </g>
    <g>
      <path d="M488.69,359.82c-1.71,0-47.07,0-47.07,0l-11.86,11.73v21.23L469,413.95V426c-4.47,11.68-10,14.79-10,14.79a36.11,36.11,0,0,1-10.85-13.36l0-13.37H425.1v16.52a20.82,20.82,0,0,1,4.74-1.82v4.6c0,6.95,14.42,18.57,29.21,26.36,16-8.52,26.47-18.26,29.12-26.32l0-31.17L449.8,381.81v-1.93c0-2.09.74-3.64,2.63-3.64h15.63s1.75-.22,1.75,1.3v4.09s17.84,8.89,18.34,9.11a1.31,1.31,0,0,0,1.76-1.35s0-20.23,0-28.77C489.93,359.82,489.22,359.83,488.69,359.82Z" transform="translate(-9.93 -41.17)"/>
      <path d="M343.29,359.83H306.76c-13.62,0-12.24,15.43-12.24,15.43v69c0,7.49,10.88,14.64,13.69,14.64l32,0c3.11,0,13.66-6.15,13.66-14.67V366.42C353.89,363.94,353.89,359.83,343.29,359.83ZM332.71,440.7l-14.57,1.63c-3.88.59-3.56-1.61-3.56-1.61V380.07l-9.31-4,29.33,0-.11,60.87C334.67,440.78,332.71,440.7,332.71,440.7Z" transform="translate(-9.93 -41.17)"/>
      <path d="M76.18,360.54a3.26,3.26,0,0,0-2.68-.74l0,0H9.93l6.4,24.84s3.5-6.65,10.26-7V452.2l-2.49,6.71H73.83s12.73-7.58,12.73-13.65l.07-72.32s.19-2.6-1.32-4Zm-9.61,75.75a4.74,4.74,0,0,1-4.43,4.63H46.65V380.21l-10.25-4.1h26s4.22-.28,4.22,3.34Z" transform="translate(-9.93 -41.17)"/>
      <path d="M288.21,395.53H251.6a.29.29,0,0,0-.28.38l5.42,18.27a38.36,38.36,0,0,1,9.19-3.68v16.37c-4.13,10.57-10.08,14-10.08,14-8.11-6.07-10-12.52-10-12.52V380.93c0-3.46.93-4.89,3.3-4.89h14.26s2.54-.3,2.54,2.09v10h20c0-11.84,0-26.9,0-27a1.33,1.33,0,0,0-1.38-1.34H239a4.38,4.38,0,0,0-3.43,1.23l-8.37,8.2a4.7,4.7,0,0,0-1.41,3.54v59.78c3.67,12.88,26.43,24.34,29.82,26.33.06,0,24.67-11.41,30.23-26.29l0-22.42h2.6V395.66A.13.13,0,0,0,288.21,395.53Z" transform="translate(-9.93 -41.17)"/>
      <path d="M224.21,452.13l-17.58-90.44a2.3,2.3,0,0,0-2.16-1.89H178.12l-11.58,60H146.22l9.55,21.59s2.68-5.08,7.87-6.56l-3,15.75s-.94,4.22-1.91,4.22c-1.5,0-3.8-4.22-3.8-4.22L137,412.75s16.69-8.33,16.69-13.15V366.76c0-5.41-.86-7-3.66-7H91.23l2.49,7.46v84.12s-1.44,3.25-6.93,7.53h30.58l-3.53-7.32V426.08L120.9,422l13.39,30.74-2.21,6.15h52.28L181.81,452l2.82-17.59H194.8l3.48-10.34,4.55,27.73c-1,4.08-4.85,7.13-4.85,7.13h31.29C227.57,457.35,224.21,452.13,224.21,452.13ZM129.39,398c-4.1,2.12-15.45,8.09-15.45,8.09S114,381.53,114,381c0-1.72.65-4.46,3-4.8h13s3.49-.1,3.49,1.82l0,15.81S133.49,395.89,129.39,398ZM187,419.75,192.25,386l5.33,33.76Z" transform="translate(-9.93 -41.17)"/>
      <path d="M420.7,452.26l0-90.07s.23-2.38-2.05-2.38H399s3,4.8,3,7.4,0,39.26,0,39.26c-16.37-31.22-23.87-46.66-23.87-46.66H357.93c3.33,1.63,3.16,7.12,3.16,7.12v84.77a7.46,7.46,0,0,1-1.73,5,20.2,20.2,0,0,1-2.75,2.22h28.1s-5.06-5-5.06-7.89V407.37l24.69,51.53h19.44A8.24,8.24,0,0,1,420.7,452.26Z" transform="translate(-9.93 -41.17)"/>
    </g>
    <path d="M287.77,53.76c2.22,2.68,13.75,19.1,21.83,28.37.37-5.52.75-10.8,3.6-15.5-.75,10.35,8,22.79,11.34,26.83,5.4,7.26,14.18,7.17,12.84-2,7.37,5.9,7.92,16,.77,19.93,8,8.76,7.49,9.73,11.72,11a5.35,5.35,0,0,0,5.16-.88c.69-.51.84-2.11-1-3.31-9.21-6-4.43-18.28-4-18.33,0,.3-1.38,9.92,3.74,13,12,7.1,12.76,12.84,11.47,22.85-.48,3.16-4.93,9.1-10.74,11.61a18.45,18.45,0,0,0,1.37-5.81c-1.6,2.39-7.54,5.43-11.95,5.39a26.55,26.55,0,0,0,4.8-5.39,2.64,2.64,0,0,0-2.71,1.18c-.74,1-4.51,4.77-11.47,2.93,2.61-1.23,3-2.29,3.58-3.82.34-1,.14-1.34-.88-1.54-13.44-2.22-16.26-12.71-29.07-19.4a37.85,37.85,0,0,0-4.45-1.66c-.59-.21-1,0-1.06.62-.41,2.76-1.73,9.73,5.15,12.47,4.33,2.23,15.47,3.68,19.9,15.19-7.95-5-9.47-4.54-12.84-4.48,5,3.56,7.26,6.18,8.94,9.51,1.81,4,4.34,4.45,7,4.82,5.16,1.34,7-3.42,7.17-3.67,3,8.9-1,14.1-7,16.05a42.7,42.7,0,0,1-12.83,1.85c-13.22.75-13.68-13.6-28.65-10.93,2-1.8,7.34-6.73,14.7-1.59-.93-1.82-1-4.12-8.72-5.95,8.53-2.68,14,1.36,17.43,2.79.07-.06-.43-8-22.42-13.31-5.22-1-32.94-6-32.43-25.76,4.46,8.91,16.19,11,21.49,4.5.64-.78.5-1.2-.45-1.82-21.41-15-90.28,4.57-71.64,30.83-2.08-.18-28.16,1.47-30.32-27.77-2.4,21.1,13.79,30.7,19.18,33.29,8.79,6.3,111.6,13.48,140,26.78,8.43,3.26,9.8,10.22,9.81,17.33,0,58.58-48.54,93.13-91,118.66a1.18,1.18,0,0,1-1.17,0c-32.34-22.43-92.49-47-89.26-125.34,13.33,53.2,83.16,82.18,86.79,83,6.39-2.54,33.77-13.7,20.44-34.7,5.42,2.12,9.27,5.84,12.53,10.36,3.16-8.15,2.72-15.62-3.87-22,12.54,1.78,23.22,7,31.84,16.57-20.27-44.89-97.69-23.49-122.41-41.72-24.27-18.07-25.23-42.36-41-57,4.43.7,8.73,1.54,12.59,4-2.38-7.58-7.21-13-16.57-20.05a27,27,0,0,1,13.23-3c-4.5-3.27-11.18-8.56-14.52-14.43,4.93,2,12.93.36,15.42-1.22,12.91-11.05,25.47-21.34,39.2-28.44C223,72,249.13,74.76,251,70a19.36,19.36,0,0,0-.29-5.47c-.37-2.48-6.35-5.52-11.72-8.29,7.14.39,25.67.42,40.8,14.6,3.53-11.55-10.64-28.2-21.41-29.7C265,41.11,280.75,43.91,287.77,53.76Zm26.73,50.05c2.24,7,4.08,10.76,7.29,12.16,3,1.25,6.55.39,8-2.24.32-.58.18-.84-.51-1.11a20.34,20.34,0,0,1-4.08-2C322.43,108.81,319.58,105.31,314.5,103.82Z" transform="translate(-9.93 -41.17)"/>
    <path class="cls-2" d="M161.25,225.3c-1.62-6.33-2.36-17.31-1.82-21.72,2.27-41.26-28-42-38.16-53-15.19-17-14.57-35.08-11.35-47.72-11.2,15.72-5.72,48.29-2.67,52.71a2.69,2.69,0,0,0,2.13,1.64,52.52,52.52,0,0,1,18,16.41c-8.56-.31-15.26-3.87-20.66-10.13.36,2.31,7.81,14.77,11,18.72.92,1.24,1.4,1.88,4,2.54C141.28,191.72,161.25,225.3,161.25,225.3Z" transform="translate(-9.93 -41.17)"/>
  </g>
</svg>
