<svg id="Layer_1" data-name="Layer 1" xmlns="http://www.w3.org/2000/svg" width="480" height="432.48" viewBox="0 0 480 432.48">
  <defs>
    <style>
      .cls-1 {
        fill: #91a1af;
      }

      .cls-2 {
        fill: #c10021;
      }

      .cls-3 {
        fill: #fff;
      }
    </style>
  </defs>
  <title>Team_Logos_Text_Toronto</title>
  <g>
    <g>
      <path class="cls-1" d="M142.83,334.34h-4.16V331h11.92v3.39h-4.16v21.73h-3.6Z" transform="translate(-10 -33.76)"/>
      <path class="cls-1" d="M170.61,336.88a6,6,0,1,1,12.06,0v13.26a6,6,0,1,1-12.06,0Zm3.6,13.26a2.43,2.43,0,1,0,4.86,0V336.88a2.43,2.43,0,1,0-4.86,0Z" transform="translate(-10 -33.76)"/>
      <path class="cls-1" d="M204.91,331h5.79c4.27,0,6.35,2.5,6.35,7.37,0,2.9-.81,5-3.1,6.28l3.88,11.47H214l-3.36-10.73h-2.15v10.73h-3.6Zm3.6,11.22h2.05c2.5,0,2.89-1.41,2.89-3.92s-.42-3.91-3.07-3.91h-1.87Z" transform="translate(-10 -33.76)"/>
      <path class="cls-1" d="M240.61,336.88a6,6,0,1,1,12.07,0v13.26a6,6,0,1,1-12.07,0Zm3.6,13.26a2.44,2.44,0,1,0,4.87,0V336.88a2.44,2.44,0,1,0-4.87,0Z" transform="translate(-10 -33.76)"/>
      <path class="cls-1" d="M276.18,331h3.46l5.43,15.13h.07V331h3.6v25.12h-3.39l-5.5-15.1h-.07v15.1h-3.6Z" transform="translate(-10 -33.76)"/>
      <path class="cls-1" d="M314.81,334.34h-4.16V331h11.92v3.39h-4.16v21.73h-3.6Z" transform="translate(-10 -33.76)"/>
      <path class="cls-1" d="M344,336.88a6,6,0,1,1,12.07,0v13.26a6,6,0,1,1-12.07,0Zm3.6,13.26a2.44,2.44,0,1,0,4.87,0V336.88a2.44,2.44,0,1,0-4.87,0Z" transform="translate(-10 -33.76)"/>
    </g>
    <g>
      <rect class="cls-2" x="228.01" y="348.83" width="17.32" height="83.65"/>
      <polygon class="cls-2" points="362.34 432.48 362.34 384.36 392.04 432.48 407.39 432.48 407.39 348.83 390.07 348.83 390.07 396.94 360.44 348.83 345.03 348.83 345.03 432.48 362.34 432.48"/>
      <polygon class="cls-2" points="421.48 348.8 421.48 365.14 442.08 365.14 442.08 432.33 459.38 432.33 459.38 370.38 457.57 365.14 459.6 365.14 480 365.14 480 348.8 421.48 348.8"/>
      <path class="cls-2" d="M313.64,382.49H299.89l-28.55,80.84-.93,2.88h18.34l3.3-9.9-2.64-8.51,4.67,2.45v0l30.06,16h19Zm-14.49,52.36L307,411.3l10.38,33Z" transform="translate(-10 -33.76)"/>
      <polygon class="cls-2" points="212.44 365.78 212.44 348.8 155.02 348.8 155.02 432.33 172.32 432.33 172.32 404.61 170.32 399.17 172.32 399.17 172.32 399.16 207.08 399.16 207.08 382.82 172.32 382.82 172.32 365.78 212.44 365.78"/>
      <polygon class="cls-2" points="137.04 365.78 137.04 348.8 79.62 348.8 79.62 432.33 137.04 432.33 137.04 415.35 96.92 415.35 96.92 404.4 95.12 399.17 131.68 399.17 131.68 382.72 96.92 382.72 96.92 365.78 137.04 365.78"/>
      <path class="cls-2" d="M61.78,382.57H10v83.6H61.78L72.92,455V393.71s-11.14-11.12-11.14-11.14m-6.46,63.48-2,2.51H27.6V405.45l-1.79-5.27H52.08s3.2,3.27,3.24,3.23Z" transform="translate(-10 -33.76)"/>
    </g>
    <g>
      <polygon class="cls-3" points="304.09 135.36 259.53 98.17 103.62 98.17 148.51 135.36 192.52 135.36 192.52 166.51 201.34 168.37 192.52 173.41 192.52 230.3 231.05 266.49 231.05 135.36 304.09 135.36"/>
      <path class="cls-3" d="M393.16,168.45h-.07l-152-134.15v-.53L202.52,69.94V119.2h38.53V88.52l94,79.94-81.64,69,.05,53.94,46.14-40.63L301,234.9s3,6.49,4.82,10.45l16.46-14.48-9.61-15.7,16.91,9.26,63.52-55.92h.07l0,0Z" transform="translate(-10 -33.76)"/>
    </g>
  </g>
</svg>
