<svg id="Layer_1" data-name="Layer 1" xmlns="http://www.w3.org/2000/svg" width="490" height="384.86" viewBox="0 0 490 384.86">
  <defs>
    <style>
      .cls-1 {
        fill: #990034;
      }

      .cls-2 {
        fill: #fff;
      }

      .cls-3 {
        fill: #003768;
      }
    </style>
  </defs>
  <title>Team_Logos_Text_Washington</title>
  <g>
    <path class="cls-1" d="M250,312.31S162.29,290,147.67,103.5L250,75.65,352.58,103.5C338.64,289.39,250,312.31,250,312.31Z" transform="translate(-5 -57.57)"/>
    <g>
      <path class="cls-2" d="M64,442.43H12.3c-4.5,0-7.3-3.32-7.3-8.39V416.1H26.91v8.31H49.43V379H71.34V434C71.34,439.11,68.46,442.43,64,442.43Z" transform="translate(-5 -57.57)"/>
      <path class="cls-2" d="M144.13,442.43h-57c-4.51,0-7.38-3.32-7.38-8.39V379h21.9v45.43h28V379h21.9V434C151.5,439.11,148.63,442.43,144.13,442.43Z" transform="translate(-5 -57.57)"/>
      <path class="cls-2" d="M221.1,442.43H167.35c-4.51,0-7.46-3.32-7.46-8.39V420H181.8v6.48h24.85v-2.66L164,410c-3.19-1-4.12-3-4.12-6.31V387.36c0-5.06,3-8.38,7.46-8.38h53.91c4.5,0,7.3,3.07,7.3,8.13V399.9H206.65v-5H181.8v2.58l42.57,13.62c3.18,1,4.19,3.15,4.19,6.48V434C228.56,439.11,225.61,442.43,221.1,442.43Z" transform="translate(-5 -57.57)"/>
      <path class="cls-2" d="M283.87,397v45.43H262V397H237V379h71.93v18Z" transform="translate(-5 -57.57)"/>
      <path class="cls-2" d="M317.27,442.43V379h21.91v63.45Z" transform="translate(-5 -57.57)"/>
      <path class="cls-2" d="M412,442.43H354.79c-4.51,0-7.23-3.32-7.23-8.39V387.36c0-5.06,2.72-8.38,7.23-8.38H412c4.51,0,7.38,3.32,7.38,8.38v18.36h-21.9v-9.55h-28v29.07h28v-9.55h21.9V434C419.34,439.11,416.47,442.43,412,442.43Z" transform="translate(-5 -57.57)"/>
      <path class="cls-2" d="M427.73,442.43V379h66.65v18H449.64v5.15h34.1v16.61h-34.1v5.65H495v18Z" transform="translate(-5 -57.57)"/>
    </g>
    <g>
      <path class="cls-2" d="M92.21,350.21l5,13.53,1.94-5.14-3.17-8.39h2.91l1.71,4.65,1.74-4.65h2.91L102,358.6l2,5.14,4.91-13.53h3.78l-7,18.34h-2.74l-2.33-6.3-2.29,6.3H95.48l-7-18.34Z" transform="translate(-5 -57.57)"/>
      <path class="cls-2" d="M138.84,350.21h3.36l7.11,18.34h-3.68l-1.78-4.74H137.2l-1.78,4.74h-3.68Zm4,10.72-2.36-6.33-2.36,6.33Z" transform="translate(-5 -57.57)"/>
      <path class="cls-2" d="M168.49,362.93h3.36v1.52a1.2,1.2,0,0,0,1.2,1.16h4.84a1.21,1.21,0,0,0,1.2-1.19v-1.75a1,1,0,0,0-.71-1l-7.69-2.06a3,3,0,0,1-2.2-3v-3a3.74,3.74,0,0,1,3.72-3.72h6.62a3.73,3.73,0,0,1,3.75,3.72v2.23h-3.39v-1.52a1.19,1.19,0,0,0-1.2-1.17h-4.81a1.24,1.24,0,0,0-1.23,1.2v1.74a1,1,0,0,0,.71,1l7.69,2.06a3.12,3.12,0,0,1,2.23,3v3a3.73,3.73,0,0,1-3.75,3.72h-6.62a3.74,3.74,0,0,1-3.72-3.72Z" transform="translate(-5 -57.57)"/>
      <path class="cls-2" d="M202.05,350.21h3.49v7.39h7.59v-7.39h3.53v18.34h-3.53v-7.68h-7.59v7.68h-3.49Z" transform="translate(-5 -57.57)"/>
      <path class="cls-2" d="M236,350.21h3.58v18.34H236Z" transform="translate(-5 -57.57)"/>
      <path class="cls-2" d="M258.92,350.21h2.84l8.79,8.78v-8.78h3.52v18.34h-3.52v-5l-8.11-8.14v13.11h-3.52Z" transform="translate(-5 -57.57)"/>
      <path class="cls-2" d="M293.31,353.6a3.75,3.75,0,0,1,3.75-3.72H304a3.72,3.72,0,0,1,3.71,3.72v2.45h-3.39v-1.74a1.16,1.16,0,0,0-1.16-1.17H298a1.18,1.18,0,0,0-1.16,1.17v10.14a1.17,1.17,0,0,0,1.16,1.16h5.17a1.15,1.15,0,0,0,1.16-1.16v-2.29h-3.42v-2.72h6.81v5.72a3.72,3.72,0,0,1-3.71,3.72h-6.95a3.75,3.75,0,0,1-3.75-3.72Z" transform="translate(-5 -57.57)"/>
      <path class="cls-2" d="M326.69,350.21h15.67v3.06h-6.08v15.28h-3.49V353.27h-6.1Z" transform="translate(-5 -57.57)"/>
      <path class="cls-2" d="M373.35,349.88a3.74,3.74,0,0,1,3.71,3.72v11.56a3.74,3.74,0,0,1-3.71,3.72h-8.14a3.74,3.74,0,0,1-3.72-3.72V353.6a3.74,3.74,0,0,1,3.72-3.72Zm-7.17,3.26a1.19,1.19,0,0,0-1.2,1.17v10.14a1.18,1.18,0,0,0,1.2,1.16h6.2a1.17,1.17,0,0,0,1.19-1.16V354.31a1.18,1.18,0,0,0-1.19-1.17Z" transform="translate(-5 -57.57)"/>
      <path class="cls-2" d="M396.41,350.21h2.85L408,359v-8.78h3.52v18.34H408v-5l-8.11-8.14v13.11h-3.52Z" transform="translate(-5 -57.57)"/>
    </g>
    <g>
      <path class="cls-3" d="M250,87.75l88.66,25q-1.23,16.37-3.23,30.83c-9,7.26-46.94,37.6-85.43,37.6-37,0-73.5-28.16-84.25-36.66-1.4-9.94-2.56-20.51-3.44-31.77Z" transform="translate(-5 -57.57)"/>
      <path class="cls-2" d="M250,181.18c38.49,0,76.45-30.34,85.43-37.6q-1,7.57-2.25,14.66C327.07,163.32,288.81,195,250,195c-36.76,0-73-28.53-81.93-35.75q-1.25-7.12-2.32-14.74C176.48,153,213,181.18,250,181.18Z" transform="translate(-5 -57.57)"/>
      <path class="cls-2" d="M250,204.44c36.64,0,72.78-30.69,81.84-38.86q-2,10.33-4.3,19.61c-15.3,12.09-46.24,33-77.54,33-30.42,0-60.51-19.72-76.22-31.93q-2.32-9.22-4.33-19.49C180.25,176.25,214.89,204.44,250,204.44Z" transform="translate(-5 -57.57)"/>
      <path class="cls-2" d="M127.18,89.83C144.69,293.7,250,322.11,250,322.11S355.55,293.7,373.06,89.83L250,57.57Zm20.49,13.67L250,75.65,352.58,103.5C338.64,289.39,250,312.31,250,312.31S162.29,290,147.67,103.5Z" transform="translate(-5 -57.57)"/>
      <path class="cls-2" d="M313.11,228.2V206.28c4-2.61,7.58-5.19,10.71-7.56A252.82,252.82,0,0,1,313.11,228.2Z" transform="translate(-5 -57.57)"/>
      <path class="cls-2" d="M301.69,250.35a151.25,151.25,0,0,1-11.29,16.27V219c3.92-1.79,7.7-3.73,11.29-5.74Z" transform="translate(-5 -57.57)"/>
      <path class="cls-2" d="M187.35,227.2a259.69,259.69,0,0,1-9.88-27.48c2.95,2.19,6.26,4.52,9.88,6.88Z" transform="translate(-5 -57.57)"/>
      <path class="cls-2" d="M209.57,265.87a154,154,0,0,1-11.3-16.81V213.22c3.6,2,7.38,3.95,11.3,5.74Z" transform="translate(-5 -57.57)"/>
      <polygon class="cls-2" points="244.98 49.33 251.93 70.7 274.39 70.7 256.22 83.91 263.16 105.28 244.98 92.07 226.8 105.28 233.75 83.91 215.57 70.7 238.04 70.7 244.98 49.33"/>
      <path class="cls-2" d="M232.1,226.75v49.53a86.62,86.62,0,0,0,10.25,6.07c.34-7.79,2.07-48.49,2.07-48.49l5.56-5.79,5.56,5.79s1.7,40.7,2,48.49a86.08,86.08,0,0,0,10.24-6.07V226.75c2.46-.35,11.31-3.25,11.31-3.25V279c-14.94,14.12-27.39,17.83-29.17,18.31-1.79-.48-14.24-4.19-29.18-18.31V223.5S229.65,226.4,232.1,226.75Z" transform="translate(-5 -57.57)"/>
    </g>
  </g>
</svg>
